G75*
G70*
%OFA0B0*%
%FSLAX24Y24*%
%IPPOS*%
%LPD*%
%AMOC8*
5,1,8,0,0,1.08239X$1,22.5*
%
%ADD10C,0.0000*%
%ADD11C,0.0060*%
%ADD12C,0.0160*%
%ADD13C,0.0100*%
%ADD14C,0.0050*%
%ADD15C,0.0020*%
%ADD16C,0.0040*%
%ADD17R,0.0128X0.0167*%
%ADD18R,0.0138X0.0138*%
%ADD19C,0.0080*%
%ADD20R,0.0340X0.0300*%
%ADD21R,0.0167X0.0128*%
%ADD22R,0.0295X0.0197*%
%ADD23C,0.0030*%
%ADD24C,0.0157*%
%ADD25C,0.0079*%
D10*
X000180Y000774D02*
X000180Y040774D01*
X050180Y040774D01*
X050180Y000774D01*
X000180Y000774D01*
X001930Y003274D02*
X001932Y003328D01*
X001938Y003382D01*
X001948Y003435D01*
X001961Y003488D01*
X001978Y003539D01*
X001999Y003589D01*
X002024Y003637D01*
X002052Y003684D01*
X002083Y003728D01*
X002117Y003770D01*
X002154Y003809D01*
X002194Y003846D01*
X002237Y003879D01*
X002282Y003910D01*
X002329Y003937D01*
X002377Y003960D01*
X002428Y003980D01*
X002479Y003997D01*
X002532Y004009D01*
X002585Y004018D01*
X002639Y004023D01*
X002694Y004024D01*
X002748Y004021D01*
X002801Y004014D01*
X002854Y004003D01*
X002907Y003989D01*
X002958Y003971D01*
X003007Y003949D01*
X003055Y003924D01*
X003101Y003895D01*
X003145Y003863D01*
X003186Y003828D01*
X003224Y003790D01*
X003260Y003749D01*
X003293Y003706D01*
X003323Y003661D01*
X003349Y003613D01*
X003372Y003564D01*
X003391Y003513D01*
X003406Y003462D01*
X003418Y003409D01*
X003426Y003355D01*
X003430Y003301D01*
X003430Y003247D01*
X003426Y003193D01*
X003418Y003139D01*
X003406Y003086D01*
X003391Y003035D01*
X003372Y002984D01*
X003349Y002935D01*
X003323Y002887D01*
X003293Y002842D01*
X003260Y002799D01*
X003224Y002758D01*
X003186Y002720D01*
X003145Y002685D01*
X003101Y002653D01*
X003055Y002624D01*
X003007Y002599D01*
X002958Y002577D01*
X002907Y002559D01*
X002854Y002545D01*
X002801Y002534D01*
X002748Y002527D01*
X002694Y002524D01*
X002639Y002525D01*
X002585Y002530D01*
X002532Y002539D01*
X002479Y002551D01*
X002428Y002568D01*
X002377Y002588D01*
X002329Y002611D01*
X002282Y002638D01*
X002237Y002669D01*
X002194Y002702D01*
X002154Y002739D01*
X002117Y002778D01*
X002083Y002820D01*
X002052Y002864D01*
X002024Y002911D01*
X001999Y002959D01*
X001978Y003009D01*
X001961Y003060D01*
X001948Y003113D01*
X001938Y003166D01*
X001932Y003220D01*
X001930Y003274D01*
X004266Y006187D02*
X004268Y006229D01*
X004274Y006271D01*
X004284Y006313D01*
X004297Y006353D01*
X004315Y006392D01*
X004336Y006429D01*
X004360Y006463D01*
X004388Y006496D01*
X004418Y006526D01*
X004451Y006552D01*
X004486Y006576D01*
X004524Y006596D01*
X004563Y006612D01*
X004603Y006625D01*
X004645Y006634D01*
X004687Y006639D01*
X004730Y006640D01*
X004772Y006637D01*
X004814Y006630D01*
X004855Y006619D01*
X004895Y006604D01*
X004933Y006586D01*
X004970Y006564D01*
X005004Y006539D01*
X005036Y006511D01*
X005064Y006480D01*
X005090Y006446D01*
X005113Y006410D01*
X005132Y006373D01*
X005148Y006333D01*
X005160Y006292D01*
X005168Y006251D01*
X005172Y006208D01*
X005172Y006166D01*
X005168Y006123D01*
X005160Y006082D01*
X005148Y006041D01*
X005132Y006001D01*
X005113Y005964D01*
X005090Y005928D01*
X005064Y005894D01*
X005036Y005863D01*
X005004Y005835D01*
X004970Y005810D01*
X004933Y005788D01*
X004895Y005770D01*
X004855Y005755D01*
X004814Y005744D01*
X004772Y005737D01*
X004730Y005734D01*
X004687Y005735D01*
X004645Y005740D01*
X004603Y005749D01*
X004563Y005762D01*
X004524Y005778D01*
X004486Y005798D01*
X004451Y005822D01*
X004418Y005848D01*
X004388Y005878D01*
X004360Y005911D01*
X004336Y005945D01*
X004315Y005982D01*
X004297Y006021D01*
X004284Y006061D01*
X004274Y006103D01*
X004268Y006145D01*
X004266Y006187D01*
X004266Y011360D02*
X004268Y011402D01*
X004274Y011444D01*
X004284Y011486D01*
X004297Y011526D01*
X004315Y011565D01*
X004336Y011602D01*
X004360Y011636D01*
X004388Y011669D01*
X004418Y011699D01*
X004451Y011725D01*
X004486Y011749D01*
X004524Y011769D01*
X004563Y011785D01*
X004603Y011798D01*
X004645Y011807D01*
X004687Y011812D01*
X004730Y011813D01*
X004772Y011810D01*
X004814Y011803D01*
X004855Y011792D01*
X004895Y011777D01*
X004933Y011759D01*
X004970Y011737D01*
X005004Y011712D01*
X005036Y011684D01*
X005064Y011653D01*
X005090Y011619D01*
X005113Y011583D01*
X005132Y011546D01*
X005148Y011506D01*
X005160Y011465D01*
X005168Y011424D01*
X005172Y011381D01*
X005172Y011339D01*
X005168Y011296D01*
X005160Y011255D01*
X005148Y011214D01*
X005132Y011174D01*
X005113Y011137D01*
X005090Y011101D01*
X005064Y011067D01*
X005036Y011036D01*
X005004Y011008D01*
X004970Y010983D01*
X004933Y010961D01*
X004895Y010943D01*
X004855Y010928D01*
X004814Y010917D01*
X004772Y010910D01*
X004730Y010907D01*
X004687Y010908D01*
X004645Y010913D01*
X004603Y010922D01*
X004563Y010935D01*
X004524Y010951D01*
X004486Y010971D01*
X004451Y010995D01*
X004418Y011021D01*
X004388Y011051D01*
X004360Y011084D01*
X004336Y011118D01*
X004315Y011155D01*
X004297Y011194D01*
X004284Y011234D01*
X004274Y011276D01*
X004268Y011318D01*
X004266Y011360D01*
X001930Y038274D02*
X001932Y038328D01*
X001938Y038382D01*
X001948Y038435D01*
X001961Y038488D01*
X001978Y038539D01*
X001999Y038589D01*
X002024Y038637D01*
X002052Y038684D01*
X002083Y038728D01*
X002117Y038770D01*
X002154Y038809D01*
X002194Y038846D01*
X002237Y038879D01*
X002282Y038910D01*
X002329Y038937D01*
X002377Y038960D01*
X002428Y038980D01*
X002479Y038997D01*
X002532Y039009D01*
X002585Y039018D01*
X002639Y039023D01*
X002694Y039024D01*
X002748Y039021D01*
X002801Y039014D01*
X002854Y039003D01*
X002907Y038989D01*
X002958Y038971D01*
X003007Y038949D01*
X003055Y038924D01*
X003101Y038895D01*
X003145Y038863D01*
X003186Y038828D01*
X003224Y038790D01*
X003260Y038749D01*
X003293Y038706D01*
X003323Y038661D01*
X003349Y038613D01*
X003372Y038564D01*
X003391Y038513D01*
X003406Y038462D01*
X003418Y038409D01*
X003426Y038355D01*
X003430Y038301D01*
X003430Y038247D01*
X003426Y038193D01*
X003418Y038139D01*
X003406Y038086D01*
X003391Y038035D01*
X003372Y037984D01*
X003349Y037935D01*
X003323Y037887D01*
X003293Y037842D01*
X003260Y037799D01*
X003224Y037758D01*
X003186Y037720D01*
X003145Y037685D01*
X003101Y037653D01*
X003055Y037624D01*
X003007Y037599D01*
X002958Y037577D01*
X002907Y037559D01*
X002854Y037545D01*
X002801Y037534D01*
X002748Y037527D01*
X002694Y037524D01*
X002639Y037525D01*
X002585Y037530D01*
X002532Y037539D01*
X002479Y037551D01*
X002428Y037568D01*
X002377Y037588D01*
X002329Y037611D01*
X002282Y037638D01*
X002237Y037669D01*
X002194Y037702D01*
X002154Y037739D01*
X002117Y037778D01*
X002083Y037820D01*
X002052Y037864D01*
X002024Y037911D01*
X001999Y037959D01*
X001978Y038009D01*
X001961Y038060D01*
X001948Y038113D01*
X001938Y038166D01*
X001932Y038220D01*
X001930Y038274D01*
X046930Y038274D02*
X046932Y038328D01*
X046938Y038382D01*
X046948Y038435D01*
X046961Y038488D01*
X046978Y038539D01*
X046999Y038589D01*
X047024Y038637D01*
X047052Y038684D01*
X047083Y038728D01*
X047117Y038770D01*
X047154Y038809D01*
X047194Y038846D01*
X047237Y038879D01*
X047282Y038910D01*
X047329Y038937D01*
X047377Y038960D01*
X047428Y038980D01*
X047479Y038997D01*
X047532Y039009D01*
X047585Y039018D01*
X047639Y039023D01*
X047694Y039024D01*
X047748Y039021D01*
X047801Y039014D01*
X047854Y039003D01*
X047907Y038989D01*
X047958Y038971D01*
X048007Y038949D01*
X048055Y038924D01*
X048101Y038895D01*
X048145Y038863D01*
X048186Y038828D01*
X048224Y038790D01*
X048260Y038749D01*
X048293Y038706D01*
X048323Y038661D01*
X048349Y038613D01*
X048372Y038564D01*
X048391Y038513D01*
X048406Y038462D01*
X048418Y038409D01*
X048426Y038355D01*
X048430Y038301D01*
X048430Y038247D01*
X048426Y038193D01*
X048418Y038139D01*
X048406Y038086D01*
X048391Y038035D01*
X048372Y037984D01*
X048349Y037935D01*
X048323Y037887D01*
X048293Y037842D01*
X048260Y037799D01*
X048224Y037758D01*
X048186Y037720D01*
X048145Y037685D01*
X048101Y037653D01*
X048055Y037624D01*
X048007Y037599D01*
X047958Y037577D01*
X047907Y037559D01*
X047854Y037545D01*
X047801Y037534D01*
X047748Y037527D01*
X047694Y037524D01*
X047639Y037525D01*
X047585Y037530D01*
X047532Y037539D01*
X047479Y037551D01*
X047428Y037568D01*
X047377Y037588D01*
X047329Y037611D01*
X047282Y037638D01*
X047237Y037669D01*
X047194Y037702D01*
X047154Y037739D01*
X047117Y037778D01*
X047083Y037820D01*
X047052Y037864D01*
X047024Y037911D01*
X046999Y037959D01*
X046978Y038009D01*
X046961Y038060D01*
X046948Y038113D01*
X046938Y038166D01*
X046932Y038220D01*
X046930Y038274D01*
X046930Y003274D02*
X046932Y003328D01*
X046938Y003382D01*
X046948Y003435D01*
X046961Y003488D01*
X046978Y003539D01*
X046999Y003589D01*
X047024Y003637D01*
X047052Y003684D01*
X047083Y003728D01*
X047117Y003770D01*
X047154Y003809D01*
X047194Y003846D01*
X047237Y003879D01*
X047282Y003910D01*
X047329Y003937D01*
X047377Y003960D01*
X047428Y003980D01*
X047479Y003997D01*
X047532Y004009D01*
X047585Y004018D01*
X047639Y004023D01*
X047694Y004024D01*
X047748Y004021D01*
X047801Y004014D01*
X047854Y004003D01*
X047907Y003989D01*
X047958Y003971D01*
X048007Y003949D01*
X048055Y003924D01*
X048101Y003895D01*
X048145Y003863D01*
X048186Y003828D01*
X048224Y003790D01*
X048260Y003749D01*
X048293Y003706D01*
X048323Y003661D01*
X048349Y003613D01*
X048372Y003564D01*
X048391Y003513D01*
X048406Y003462D01*
X048418Y003409D01*
X048426Y003355D01*
X048430Y003301D01*
X048430Y003247D01*
X048426Y003193D01*
X048418Y003139D01*
X048406Y003086D01*
X048391Y003035D01*
X048372Y002984D01*
X048349Y002935D01*
X048323Y002887D01*
X048293Y002842D01*
X048260Y002799D01*
X048224Y002758D01*
X048186Y002720D01*
X048145Y002685D01*
X048101Y002653D01*
X048055Y002624D01*
X048007Y002599D01*
X047958Y002577D01*
X047907Y002559D01*
X047854Y002545D01*
X047801Y002534D01*
X047748Y002527D01*
X047694Y002524D01*
X047639Y002525D01*
X047585Y002530D01*
X047532Y002539D01*
X047479Y002551D01*
X047428Y002568D01*
X047377Y002588D01*
X047329Y002611D01*
X047282Y002638D01*
X047237Y002669D01*
X047194Y002702D01*
X047154Y002739D01*
X047117Y002778D01*
X047083Y002820D01*
X047052Y002864D01*
X047024Y002911D01*
X046999Y002959D01*
X046978Y003009D01*
X046961Y003060D01*
X046948Y003113D01*
X046938Y003166D01*
X046932Y003220D01*
X046930Y003274D01*
D11*
X032610Y002694D02*
X032610Y002054D01*
X032183Y002694D01*
X032183Y002054D01*
X031965Y002160D02*
X031965Y002587D01*
X031858Y002694D01*
X031645Y002694D01*
X031538Y002587D01*
X031538Y002160D01*
X031645Y002054D01*
X031858Y002054D01*
X031965Y002160D01*
X031321Y002694D02*
X030894Y002694D01*
X031107Y002694D02*
X031107Y002054D01*
X030463Y002054D02*
X030463Y002694D01*
X030676Y002694D02*
X030249Y002694D01*
X030032Y002694D02*
X030032Y002160D01*
X029925Y002054D01*
X029711Y002054D01*
X029605Y002160D01*
X029605Y002694D01*
X029387Y002587D02*
X029387Y002481D01*
X029280Y002374D01*
X028960Y002374D01*
X028960Y002054D02*
X028960Y002694D01*
X029280Y002694D01*
X029387Y002587D01*
X029280Y002374D02*
X029387Y002267D01*
X029387Y002160D01*
X029280Y002054D01*
X028960Y002054D01*
X024176Y002087D02*
X024069Y002194D01*
X023856Y002194D01*
X023749Y002087D01*
X023749Y001981D01*
X023856Y001874D01*
X024069Y001874D01*
X024176Y001767D01*
X024176Y001660D01*
X024069Y001554D01*
X023856Y001554D01*
X023749Y001660D01*
X023532Y001874D02*
X023532Y002087D01*
X023425Y002194D01*
X023105Y002194D01*
X023105Y001554D01*
X023105Y001767D02*
X023425Y001767D01*
X023532Y001874D01*
X022887Y001874D02*
X022674Y001874D01*
X022887Y001874D02*
X022887Y001660D01*
X022780Y001554D01*
X022567Y001554D01*
X022460Y001660D01*
X022460Y002087D01*
X022567Y002194D01*
X022780Y002194D01*
X022887Y002087D01*
X017780Y008004D02*
X014580Y008004D01*
X014557Y008006D01*
X014534Y008011D01*
X014512Y008020D01*
X014492Y008033D01*
X014474Y008048D01*
X014459Y008066D01*
X014446Y008086D01*
X014437Y008108D01*
X014432Y008131D01*
X014430Y008154D01*
X014430Y008574D01*
X014430Y008974D01*
X014430Y009394D01*
X014432Y009417D01*
X014437Y009440D01*
X014446Y009462D01*
X014459Y009482D01*
X014474Y009500D01*
X014492Y009515D01*
X014512Y009528D01*
X014534Y009537D01*
X014557Y009542D01*
X014580Y009544D01*
X017780Y009544D01*
X017803Y009542D01*
X017826Y009537D01*
X017848Y009528D01*
X017868Y009515D01*
X017886Y009500D01*
X017901Y009482D01*
X017914Y009462D01*
X017923Y009440D01*
X017928Y009417D01*
X017930Y009394D01*
X017930Y008154D01*
X017928Y008131D01*
X017923Y008108D01*
X017914Y008086D01*
X017901Y008066D01*
X017886Y008048D01*
X017868Y008033D01*
X017848Y008020D01*
X017826Y008011D01*
X017803Y008006D01*
X017780Y008004D01*
X014430Y008574D02*
X014457Y008576D01*
X014484Y008581D01*
X014510Y008591D01*
X014534Y008603D01*
X014556Y008619D01*
X014576Y008637D01*
X014593Y008659D01*
X014608Y008682D01*
X014618Y008707D01*
X014626Y008733D01*
X014630Y008760D01*
X014630Y008788D01*
X014626Y008815D01*
X014618Y008841D01*
X014608Y008866D01*
X014593Y008889D01*
X014576Y008911D01*
X014556Y008929D01*
X014534Y008945D01*
X014510Y008957D01*
X014484Y008967D01*
X014457Y008972D01*
X014430Y008974D01*
X012357Y005194D02*
X012357Y004554D01*
X012144Y004554D02*
X012571Y004554D01*
X012144Y004981D02*
X012357Y005194D01*
X011926Y005087D02*
X011819Y005194D01*
X011606Y005194D01*
X011499Y005087D01*
X011499Y004660D01*
X011606Y004554D01*
X011819Y004554D01*
X011926Y004660D01*
X011282Y004660D02*
X011175Y004554D01*
X010961Y004554D01*
X010855Y004660D01*
X010961Y004874D02*
X011175Y004874D01*
X011282Y004767D01*
X011282Y004660D01*
X010961Y004874D02*
X010855Y004981D01*
X010855Y005087D01*
X010961Y005194D01*
X011175Y005194D01*
X011282Y005087D01*
X010637Y005194D02*
X010210Y005194D01*
X010210Y004554D01*
X010637Y004554D01*
X010424Y004874D02*
X010210Y004874D01*
X009821Y004981D02*
X009821Y005087D01*
X009714Y005194D01*
X009500Y005194D01*
X009394Y005087D01*
X009176Y005087D02*
X009069Y005194D01*
X008856Y005194D01*
X008749Y005087D01*
X008749Y004660D01*
X008856Y004554D01*
X009069Y004554D01*
X009176Y004660D01*
X009394Y004554D02*
X009821Y004981D01*
X009821Y004554D02*
X009394Y004554D01*
X008532Y004660D02*
X008425Y004554D01*
X008211Y004554D01*
X008105Y004660D01*
X008211Y004874D02*
X008425Y004874D01*
X008532Y004767D01*
X008532Y004660D01*
X008211Y004874D02*
X008105Y004981D01*
X008105Y005087D01*
X008211Y005194D01*
X008425Y005194D01*
X008532Y005087D01*
X007887Y005194D02*
X007460Y005194D01*
X007460Y004554D01*
X007887Y004554D01*
X007674Y004874D02*
X007460Y004874D01*
X007043Y006554D02*
X006509Y006554D01*
X006509Y006981D02*
X007043Y006981D01*
X007150Y006874D01*
X007150Y006660D01*
X007043Y006554D01*
X007043Y007198D02*
X007150Y007305D01*
X007150Y007519D01*
X007043Y007625D01*
X006936Y007625D01*
X006830Y007519D01*
X006830Y007305D01*
X006723Y007198D01*
X006616Y007198D01*
X006509Y007305D01*
X006509Y007519D01*
X006616Y007625D01*
X006509Y007843D02*
X006509Y008163D01*
X006616Y008270D01*
X006723Y008270D01*
X006830Y008163D01*
X006830Y007843D01*
X007150Y007843D02*
X006509Y007843D01*
X006830Y008163D02*
X006936Y008270D01*
X007043Y008270D01*
X007150Y008163D01*
X007150Y007843D01*
X007150Y009132D02*
X006509Y009132D01*
X006509Y009452D01*
X006616Y009559D01*
X006830Y009559D01*
X006936Y009452D01*
X006936Y009132D01*
X007150Y009776D02*
X006509Y009776D01*
X006509Y010203D02*
X007150Y010203D01*
X006936Y009990D01*
X007150Y009776D01*
X007150Y010421D02*
X006509Y010421D01*
X006509Y010741D01*
X006616Y010848D01*
X006830Y010848D01*
X006936Y010741D01*
X006936Y010421D01*
X006936Y010635D02*
X007150Y010848D01*
X001150Y014554D02*
X001150Y014981D01*
X001043Y015198D02*
X001150Y015305D01*
X001150Y015519D01*
X001043Y015625D01*
X000936Y015625D01*
X000830Y015519D01*
X000830Y015305D01*
X000723Y015198D01*
X000616Y015198D01*
X000509Y015305D01*
X000509Y015519D01*
X000616Y015625D01*
X000616Y015843D02*
X001043Y015843D01*
X001150Y015950D01*
X001150Y016163D01*
X001043Y016270D01*
X000616Y016270D02*
X000509Y016163D01*
X000509Y015950D01*
X000616Y015843D01*
X000509Y014981D02*
X000509Y014554D01*
X001150Y014554D01*
X000830Y014554D02*
X000830Y014767D01*
X000936Y017132D02*
X000936Y017452D01*
X000830Y017559D01*
X000616Y017559D01*
X000509Y017452D01*
X000509Y017132D01*
X001150Y017132D01*
X001043Y017776D02*
X000616Y017776D01*
X000509Y017883D01*
X000509Y018097D01*
X000616Y018203D01*
X001043Y018203D01*
X001150Y018097D01*
X001150Y017883D01*
X001043Y017776D01*
X001150Y018421D02*
X000509Y018421D01*
X000936Y018635D02*
X001150Y018848D01*
X000509Y018848D01*
X000509Y019066D02*
X001150Y019066D01*
X001150Y019493D01*
X001150Y019710D02*
X000509Y019710D01*
X000509Y020030D01*
X000616Y020137D01*
X000830Y020137D01*
X000936Y020030D01*
X000936Y019710D01*
X000936Y019924D02*
X001150Y020137D01*
X000509Y019493D02*
X000509Y019066D01*
X000830Y019066D02*
X000830Y019279D01*
X000936Y018635D02*
X001150Y018421D01*
X008030Y023194D02*
X008030Y024334D01*
X008330Y024334D01*
X008330Y023194D01*
X008030Y023194D01*
X009009Y023133D02*
X009116Y023026D01*
X009543Y023026D01*
X009650Y023133D01*
X009650Y023347D01*
X009543Y023453D01*
X009116Y023453D01*
X009009Y023347D01*
X009009Y023133D01*
X009116Y022809D02*
X009009Y022702D01*
X009009Y022382D01*
X009650Y022382D01*
X009436Y022382D02*
X009436Y022702D01*
X009330Y022809D01*
X009116Y022809D01*
X009436Y022595D02*
X009650Y022809D01*
X009650Y022164D02*
X009650Y021737D01*
X009009Y021737D01*
X009009Y022164D01*
X009330Y021951D02*
X009330Y021737D01*
X009650Y021520D02*
X009009Y021520D01*
X009009Y021093D02*
X009650Y021093D01*
X009436Y021306D01*
X009650Y021520D01*
X009543Y020875D02*
X009116Y020875D01*
X009009Y020769D01*
X009009Y020555D01*
X009116Y020448D01*
X009543Y020448D01*
X009650Y020555D01*
X009650Y020769D01*
X009543Y020875D01*
X009330Y020231D02*
X009436Y020124D01*
X009436Y019804D01*
X009650Y019804D02*
X009009Y019804D01*
X009009Y020124D01*
X009116Y020231D01*
X009330Y020231D01*
X011509Y021554D02*
X012150Y021554D01*
X011936Y021767D01*
X012150Y021981D01*
X011509Y021981D01*
X011723Y022198D02*
X011509Y022412D01*
X011723Y022625D01*
X012150Y022625D01*
X011830Y022625D02*
X011830Y022198D01*
X011723Y022198D02*
X012150Y022198D01*
X012150Y023056D02*
X011509Y023056D01*
X011509Y022843D02*
X011509Y023270D01*
X011509Y023487D02*
X012150Y023487D01*
X012150Y023914D01*
X012150Y024132D02*
X011509Y024132D01*
X011509Y024452D01*
X011616Y024559D01*
X011830Y024559D01*
X011936Y024452D01*
X011936Y024132D01*
X011936Y024345D02*
X012150Y024559D01*
X011509Y023914D02*
X011509Y023487D01*
X011830Y023487D02*
X011830Y023701D01*
X009650Y023671D02*
X009009Y023671D01*
X009650Y024098D01*
X009009Y024098D01*
X011509Y025554D02*
X011509Y025981D01*
X011509Y025767D02*
X012150Y025767D01*
X012150Y026198D02*
X012150Y026625D01*
X012150Y026843D02*
X011509Y026843D01*
X011723Y027056D01*
X011509Y027270D01*
X012150Y027270D01*
X012150Y027487D02*
X011509Y027487D01*
X011509Y027808D01*
X011616Y027914D01*
X011830Y027914D01*
X011936Y027808D01*
X011936Y027487D01*
X011509Y026625D02*
X011509Y026198D01*
X012150Y026198D01*
X011830Y026198D02*
X011830Y026412D01*
X008440Y018334D02*
X008440Y018114D01*
X008440Y018334D02*
X008120Y018334D01*
X008440Y017434D02*
X008440Y017214D01*
X008120Y017214D01*
X017620Y017624D02*
X017620Y017924D01*
X018760Y017924D01*
X018760Y017624D01*
X017620Y017624D01*
X020190Y016672D02*
X020190Y014875D01*
X022170Y014875D01*
X022170Y016672D01*
X020190Y016672D01*
X020360Y015294D02*
X020362Y015320D01*
X020368Y015346D01*
X020377Y015370D01*
X020390Y015393D01*
X020406Y015414D01*
X020425Y015432D01*
X020446Y015448D01*
X020470Y015460D01*
X020494Y015468D01*
X020520Y015473D01*
X020547Y015474D01*
X020573Y015471D01*
X020598Y015464D01*
X020622Y015454D01*
X020645Y015440D01*
X020665Y015424D01*
X020682Y015404D01*
X020697Y015382D01*
X020708Y015358D01*
X020716Y015333D01*
X020720Y015307D01*
X020720Y015281D01*
X020716Y015255D01*
X020708Y015230D01*
X020697Y015206D01*
X020682Y015184D01*
X020665Y015164D01*
X020645Y015148D01*
X020622Y015134D01*
X020598Y015124D01*
X020573Y015117D01*
X020547Y015114D01*
X020520Y015115D01*
X020494Y015120D01*
X020470Y015128D01*
X020446Y015140D01*
X020425Y015156D01*
X020406Y015174D01*
X020390Y015195D01*
X020377Y015218D01*
X020368Y015242D01*
X020362Y015268D01*
X020360Y015294D01*
X023111Y017714D02*
X023111Y017751D01*
X023111Y017714D02*
X023749Y017714D01*
X023749Y017751D01*
X023749Y018068D02*
X023749Y018105D01*
X023749Y018442D02*
X023749Y018479D01*
X023749Y018797D02*
X023749Y018834D01*
X023111Y018834D01*
X023111Y018797D01*
X023111Y018479D02*
X023111Y018068D01*
X023361Y019214D02*
X023361Y019251D01*
X023361Y019214D02*
X023999Y019214D01*
X023999Y019251D01*
X023999Y019568D02*
X023999Y019979D01*
X023999Y020297D02*
X023999Y020334D01*
X023361Y020334D01*
X023361Y020297D01*
X023361Y019979D02*
X023361Y019942D01*
X023361Y019605D02*
X023361Y019568D01*
X025620Y017924D02*
X025620Y017624D01*
X026760Y017624D01*
X026760Y017924D01*
X025620Y017924D01*
X028190Y016672D02*
X028190Y014875D01*
X030170Y014875D01*
X030170Y016672D01*
X028190Y016672D01*
X028360Y015294D02*
X028362Y015320D01*
X028368Y015346D01*
X028377Y015370D01*
X028390Y015393D01*
X028406Y015414D01*
X028425Y015432D01*
X028446Y015448D01*
X028470Y015460D01*
X028494Y015468D01*
X028520Y015473D01*
X028547Y015474D01*
X028573Y015471D01*
X028598Y015464D01*
X028622Y015454D01*
X028645Y015440D01*
X028665Y015424D01*
X028682Y015404D01*
X028697Y015382D01*
X028708Y015358D01*
X028716Y015333D01*
X028720Y015307D01*
X028720Y015281D01*
X028716Y015255D01*
X028708Y015230D01*
X028697Y015206D01*
X028682Y015184D01*
X028665Y015164D01*
X028645Y015148D01*
X028622Y015134D01*
X028598Y015124D01*
X028573Y015117D01*
X028547Y015114D01*
X028520Y015115D01*
X028494Y015120D01*
X028470Y015128D01*
X028446Y015140D01*
X028425Y015156D01*
X028406Y015174D01*
X028390Y015195D01*
X028377Y015218D01*
X028368Y015242D01*
X028362Y015268D01*
X028360Y015294D01*
X031111Y017714D02*
X031111Y017751D01*
X031111Y017714D02*
X031749Y017714D01*
X031749Y017751D01*
X031749Y018068D02*
X031749Y018105D01*
X031749Y018442D02*
X031749Y018479D01*
X031749Y018797D02*
X031749Y018834D01*
X031111Y018834D01*
X031111Y018797D01*
X031111Y018479D02*
X031111Y018068D01*
X031361Y019214D02*
X031361Y019251D01*
X031361Y019214D02*
X031999Y019214D01*
X031999Y019251D01*
X031999Y019568D02*
X031999Y019979D01*
X031999Y020297D02*
X031999Y020334D01*
X031361Y020334D01*
X031361Y020297D01*
X031361Y019979D02*
X031361Y019942D01*
X031361Y019605D02*
X031361Y019568D01*
X033620Y017924D02*
X033620Y017624D01*
X034760Y017624D01*
X034760Y017924D01*
X033620Y017924D01*
X036190Y016672D02*
X036190Y014875D01*
X038170Y014875D01*
X038170Y016672D01*
X036190Y016672D01*
X036360Y015294D02*
X036362Y015320D01*
X036368Y015346D01*
X036377Y015370D01*
X036390Y015393D01*
X036406Y015414D01*
X036425Y015432D01*
X036446Y015448D01*
X036470Y015460D01*
X036494Y015468D01*
X036520Y015473D01*
X036547Y015474D01*
X036573Y015471D01*
X036598Y015464D01*
X036622Y015454D01*
X036645Y015440D01*
X036665Y015424D01*
X036682Y015404D01*
X036697Y015382D01*
X036708Y015358D01*
X036716Y015333D01*
X036720Y015307D01*
X036720Y015281D01*
X036716Y015255D01*
X036708Y015230D01*
X036697Y015206D01*
X036682Y015184D01*
X036665Y015164D01*
X036645Y015148D01*
X036622Y015134D01*
X036598Y015124D01*
X036573Y015117D01*
X036547Y015114D01*
X036520Y015115D01*
X036494Y015120D01*
X036470Y015128D01*
X036446Y015140D01*
X036425Y015156D01*
X036406Y015174D01*
X036390Y015195D01*
X036377Y015218D01*
X036368Y015242D01*
X036362Y015268D01*
X036360Y015294D01*
X039111Y017714D02*
X039111Y017751D01*
X039111Y017714D02*
X039749Y017714D01*
X039749Y017751D01*
X039749Y018068D02*
X039749Y018105D01*
X039749Y018442D02*
X039749Y018479D01*
X039749Y018797D02*
X039749Y018834D01*
X039111Y018834D01*
X039111Y018797D01*
X039111Y018479D02*
X039111Y018068D01*
X039361Y019214D02*
X039361Y019251D01*
X039361Y019214D02*
X039999Y019214D01*
X039999Y019251D01*
X039999Y019568D02*
X039999Y019979D01*
X039999Y020297D02*
X039999Y020334D01*
X039361Y020334D01*
X039361Y020297D01*
X039361Y019979D02*
X039361Y019942D01*
X039361Y019605D02*
X039361Y019568D01*
X041620Y017924D02*
X041620Y017624D01*
X042760Y017624D01*
X042760Y017924D01*
X041620Y017924D01*
X044190Y016672D02*
X044190Y014875D01*
X046170Y014875D01*
X046170Y016672D01*
X044190Y016672D01*
X044360Y015294D02*
X044362Y015320D01*
X044368Y015346D01*
X044377Y015370D01*
X044390Y015393D01*
X044406Y015414D01*
X044425Y015432D01*
X044446Y015448D01*
X044470Y015460D01*
X044494Y015468D01*
X044520Y015473D01*
X044547Y015474D01*
X044573Y015471D01*
X044598Y015464D01*
X044622Y015454D01*
X044645Y015440D01*
X044665Y015424D01*
X044682Y015404D01*
X044697Y015382D01*
X044708Y015358D01*
X044716Y015333D01*
X044720Y015307D01*
X044720Y015281D01*
X044716Y015255D01*
X044708Y015230D01*
X044697Y015206D01*
X044682Y015184D01*
X044665Y015164D01*
X044645Y015148D01*
X044622Y015134D01*
X044598Y015124D01*
X044573Y015117D01*
X044547Y015114D01*
X044520Y015115D01*
X044494Y015120D01*
X044470Y015128D01*
X044446Y015140D01*
X044425Y015156D01*
X044406Y015174D01*
X044390Y015195D01*
X044377Y015218D01*
X044368Y015242D01*
X044362Y015268D01*
X044360Y015294D01*
X047111Y017714D02*
X047111Y017751D01*
X047111Y017714D02*
X047749Y017714D01*
X047749Y017751D01*
X047749Y018068D02*
X047749Y018105D01*
X047749Y018442D02*
X047749Y018479D01*
X047749Y018797D02*
X047749Y018834D01*
X047111Y018834D01*
X047111Y018797D01*
X047111Y018479D02*
X047111Y018068D01*
X047361Y019214D02*
X047361Y019251D01*
X047361Y019214D02*
X047999Y019214D01*
X047999Y019251D01*
X047999Y019568D02*
X047999Y019979D01*
X047999Y020297D02*
X047999Y020334D01*
X047361Y020334D01*
X047361Y020297D01*
X047361Y019979D02*
X047361Y019942D01*
X047361Y019605D02*
X047361Y019568D01*
X047487Y023214D02*
X046873Y023214D01*
X046873Y024334D02*
X047487Y024334D01*
X041760Y023924D02*
X041760Y023624D01*
X040620Y023624D01*
X040620Y023924D01*
X041760Y023924D01*
X039487Y024334D02*
X038873Y024334D01*
X038873Y023214D02*
X039487Y023214D01*
X031487Y023214D02*
X030873Y023214D01*
X030873Y024334D02*
X031487Y024334D01*
X025760Y023924D02*
X025760Y023624D01*
X024620Y023624D01*
X024620Y023924D01*
X025760Y023924D01*
X023487Y024334D02*
X022873Y024334D01*
X022873Y023214D02*
X023487Y023214D01*
X023528Y035604D02*
X023741Y035604D01*
X023848Y035710D01*
X023848Y035924D01*
X023634Y035924D01*
X023421Y036137D02*
X023421Y035710D01*
X023528Y035604D01*
X023203Y035604D02*
X022990Y035817D01*
X023097Y035817D02*
X022776Y035817D01*
X022776Y035604D02*
X022776Y036244D01*
X023097Y036244D01*
X023203Y036137D01*
X023203Y035924D01*
X023097Y035817D01*
X023421Y036137D02*
X023528Y036244D01*
X023741Y036244D01*
X023848Y036137D01*
X024065Y036244D02*
X024065Y035604D01*
X024492Y035604D01*
X024279Y035924D02*
X024065Y035924D01*
X024065Y036244D02*
X024492Y036244D01*
X022559Y036031D02*
X022559Y035604D01*
X022559Y035924D02*
X022132Y035924D01*
X022132Y036031D02*
X022345Y036244D01*
X022559Y036031D01*
X022132Y036031D02*
X022132Y035604D01*
X021914Y035604D02*
X021914Y036244D01*
X021914Y035924D02*
X021487Y035924D01*
X021270Y036137D02*
X021163Y036244D01*
X020949Y036244D01*
X020843Y036137D01*
X020843Y035710D01*
X020949Y035604D01*
X021163Y035604D01*
X021270Y035710D01*
X021487Y035604D02*
X021487Y036244D01*
X016443Y039304D02*
X016443Y039944D01*
X016230Y039944D02*
X016657Y039944D01*
X016012Y039944D02*
X016012Y039410D01*
X015905Y039304D01*
X015692Y039304D01*
X015585Y039410D01*
X015585Y039944D01*
X015368Y039837D02*
X015368Y039624D01*
X015261Y039517D01*
X014941Y039517D01*
X014941Y039304D02*
X014941Y039944D01*
X015261Y039944D01*
X015368Y039837D01*
X014723Y039944D02*
X014723Y039304D01*
X014296Y039944D01*
X014296Y039304D01*
X014080Y039304D02*
X013866Y039304D01*
X013973Y039304D02*
X013973Y039944D01*
X013866Y039944D02*
X014080Y039944D01*
X013004Y039944D02*
X013004Y039837D01*
X012791Y039624D01*
X012791Y039304D01*
X012791Y039624D02*
X012577Y039837D01*
X012577Y039944D01*
X012360Y039837D02*
X012360Y039624D01*
X012253Y039517D01*
X011933Y039517D01*
X012146Y039517D02*
X012360Y039304D01*
X011933Y039304D02*
X011933Y039944D01*
X012253Y039944D01*
X012360Y039837D01*
X011715Y039944D02*
X011288Y039944D01*
X011288Y039304D01*
X011715Y039304D01*
X011502Y039624D02*
X011288Y039624D01*
X011071Y039944D02*
X010644Y039944D01*
X010857Y039944D02*
X010857Y039304D01*
X010213Y039304D02*
X010213Y039944D01*
X010426Y039944D02*
X009999Y039944D01*
X009782Y039731D02*
X009782Y039304D01*
X009782Y039624D02*
X009355Y039624D01*
X009355Y039731D02*
X009355Y039304D01*
X009137Y039410D02*
X009030Y039304D01*
X008710Y039304D01*
X008710Y039944D01*
X009030Y039944D01*
X009137Y039837D01*
X009137Y039731D01*
X009030Y039624D01*
X008710Y039624D01*
X009030Y039624D02*
X009137Y039517D01*
X009137Y039410D01*
X009355Y039731D02*
X009568Y039944D01*
X009782Y039731D01*
X029882Y036244D02*
X029882Y035604D01*
X030309Y035604D01*
X030526Y035710D02*
X030633Y035604D01*
X030847Y035604D01*
X030953Y035710D01*
X030953Y035817D01*
X030847Y035924D01*
X030633Y035924D01*
X030526Y036031D01*
X030526Y036137D01*
X030633Y036244D01*
X030847Y036244D01*
X030953Y036137D01*
X031171Y036137D02*
X031171Y035710D01*
X031278Y035604D01*
X031491Y035604D01*
X031598Y035710D01*
X031815Y035604D02*
X032242Y036031D01*
X032242Y036137D01*
X032136Y036244D01*
X031922Y036244D01*
X031815Y036137D01*
X031598Y036137D02*
X031491Y036244D01*
X031278Y036244D01*
X031171Y036137D01*
X031815Y035604D02*
X032242Y035604D01*
X030309Y036244D02*
X029882Y036244D01*
X029882Y035924D02*
X030095Y035924D01*
X040132Y035924D02*
X040345Y035924D01*
X040132Y036244D02*
X040132Y035604D01*
X040559Y035604D01*
X040776Y035710D02*
X040883Y035604D01*
X041097Y035604D01*
X041203Y035710D01*
X041203Y035817D01*
X041097Y035924D01*
X040883Y035924D01*
X040776Y036031D01*
X040776Y036137D01*
X040883Y036244D01*
X041097Y036244D01*
X041203Y036137D01*
X041421Y036137D02*
X041421Y035710D01*
X041528Y035604D01*
X041741Y035604D01*
X041848Y035710D01*
X042065Y035604D02*
X042492Y035604D01*
X042279Y035604D02*
X042279Y036244D01*
X042065Y036031D01*
X041848Y036137D02*
X041741Y036244D01*
X041528Y036244D01*
X041421Y036137D01*
X040559Y036244D02*
X040132Y036244D01*
X014580Y004274D02*
X013780Y004274D01*
X013680Y004174D01*
X013680Y003374D01*
X013780Y003274D01*
X013680Y003174D01*
X013680Y002374D01*
X013780Y002274D01*
X013680Y002174D01*
X013680Y001374D01*
X013780Y001274D01*
X014580Y001274D01*
X014680Y001374D01*
X014680Y002174D01*
X014580Y002274D01*
X014680Y002374D01*
X014680Y003174D01*
X014580Y003274D01*
X014680Y003374D01*
X014680Y004174D01*
X014580Y004274D01*
D12*
X019389Y003024D02*
X019391Y003036D01*
X019396Y003047D01*
X019404Y003056D01*
X019415Y003062D01*
X019427Y003065D01*
X019439Y003064D01*
X019451Y003060D01*
X019460Y003052D01*
X019467Y003042D01*
X019471Y003030D01*
X019471Y003018D01*
X019467Y003006D01*
X019460Y002996D01*
X019450Y002988D01*
X019439Y002984D01*
X019427Y002983D01*
X019415Y002986D01*
X019404Y002992D01*
X019396Y003001D01*
X019391Y003012D01*
X019389Y003024D01*
X019680Y035274D02*
X025680Y035274D01*
X025680Y040024D01*
X019680Y040024D01*
X019680Y035274D01*
X020430Y039274D02*
X020430Y039774D01*
X020180Y039524D02*
X020680Y039524D01*
X024680Y039524D02*
X025180Y039524D01*
X026680Y040024D02*
X035680Y040024D01*
X035680Y035274D01*
X026680Y035274D01*
X026680Y040024D01*
X036680Y040024D02*
X036680Y035274D01*
X045680Y035274D01*
X045680Y040024D01*
X036680Y040024D01*
D13*
X022066Y033281D02*
X022066Y033055D01*
X020294Y033055D01*
X020294Y033282D01*
X020294Y034266D02*
X020294Y034492D01*
X022066Y034492D01*
X022066Y034266D01*
X017066Y029242D02*
X017066Y029016D01*
X017066Y029242D02*
X015294Y029242D01*
X015294Y028032D02*
X015294Y027805D01*
X017066Y027805D01*
X017066Y028032D01*
X014180Y028024D02*
X014180Y026274D01*
X012180Y026274D01*
X012180Y028024D01*
X014180Y028024D01*
X014180Y026274D02*
X014180Y025524D01*
X012180Y025524D01*
X012180Y026274D01*
X012180Y024274D02*
X014180Y024274D01*
X014180Y022524D01*
X012180Y022524D01*
X012180Y024274D01*
X012180Y022524D02*
X012180Y021774D01*
X014180Y021774D01*
X014180Y022524D01*
X015294Y023805D02*
X015294Y024032D01*
X015294Y023805D02*
X017066Y023805D01*
X017066Y024032D01*
X017066Y025016D02*
X017066Y025242D01*
X015294Y025242D01*
X015294Y025016D01*
X015294Y029016D02*
X015294Y029242D01*
X022523Y010280D02*
X027641Y010280D01*
X027936Y009984D01*
X027936Y004866D01*
X027837Y004768D01*
X022523Y004768D01*
X022424Y004866D01*
X022424Y010181D01*
X022523Y010280D01*
X027444Y009886D02*
X027446Y009905D01*
X027451Y009924D01*
X027461Y009940D01*
X027473Y009955D01*
X027488Y009967D01*
X027504Y009977D01*
X027523Y009982D01*
X027542Y009984D01*
X027561Y009982D01*
X027580Y009977D01*
X027596Y009967D01*
X027611Y009955D01*
X027623Y009940D01*
X027633Y009924D01*
X027638Y009905D01*
X027640Y009886D01*
X027638Y009867D01*
X027633Y009848D01*
X027623Y009832D01*
X027611Y009817D01*
X027596Y009805D01*
X027580Y009795D01*
X027561Y009790D01*
X027542Y009788D01*
X027523Y009790D01*
X027504Y009795D01*
X027488Y009805D01*
X027473Y009817D01*
X027461Y009832D01*
X027451Y009848D01*
X027446Y009867D01*
X027444Y009886D01*
X035180Y003774D02*
X038180Y003774D01*
X038180Y001774D01*
X035180Y001774D01*
X035180Y003774D01*
X022130Y002774D02*
X022130Y002224D01*
X022130Y002774D02*
X021730Y002774D01*
X021430Y001374D02*
X019430Y001374D01*
X018730Y002224D02*
X018730Y002774D01*
X019130Y002774D01*
X012680Y004274D02*
X012680Y001274D01*
X011930Y001274D01*
X011930Y004274D01*
X012680Y004274D01*
X011930Y004274D02*
X010180Y004274D01*
X010180Y001274D01*
X011930Y001274D01*
X009930Y001274D02*
X009180Y001274D01*
X009180Y004274D01*
X009930Y004274D01*
X009930Y001274D01*
X009180Y001274D02*
X007430Y001274D01*
X007430Y004274D01*
X009180Y004274D01*
D14*
X006180Y006037D02*
X006180Y006805D01*
X006180Y006037D02*
X000609Y006037D01*
X000609Y011510D01*
X006180Y011510D01*
X006180Y010742D01*
X003680Y012774D02*
X003180Y012774D01*
X003430Y013024D02*
X003430Y012524D01*
X003930Y013274D02*
X001830Y013274D01*
X001580Y013524D01*
X001580Y016024D01*
X001830Y016274D01*
X003930Y016274D01*
X004180Y016024D01*
X006530Y016024D01*
X006780Y015774D01*
X006780Y013774D01*
X006530Y013524D01*
X004180Y013524D01*
X003930Y013274D01*
X006430Y013274D02*
X006930Y013274D01*
X009700Y009654D02*
X010670Y009654D01*
X010670Y007894D02*
X009700Y007894D01*
X014055Y005470D02*
X014505Y005470D01*
X014505Y005620D02*
X014505Y005319D01*
X014280Y005159D02*
X014355Y005084D01*
X014355Y004859D01*
X014505Y004859D02*
X014055Y004859D01*
X014055Y005084D01*
X014130Y005159D01*
X014280Y005159D01*
X014205Y005319D02*
X014055Y005470D01*
X014055Y004699D02*
X014055Y004549D01*
X014055Y004624D02*
X014430Y004624D01*
X014505Y004549D01*
X014505Y004474D01*
X014430Y004399D01*
X013495Y003666D02*
X013495Y003440D01*
X013495Y003553D02*
X013155Y003553D01*
X013268Y003440D01*
X013268Y002666D02*
X013211Y002666D01*
X013155Y002610D01*
X013155Y002496D01*
X013211Y002440D01*
X013268Y002666D02*
X013495Y002440D01*
X013495Y002666D01*
X013438Y001666D02*
X013495Y001610D01*
X013495Y001496D01*
X013438Y001440D01*
X013325Y001553D02*
X013325Y001610D01*
X013382Y001666D01*
X013438Y001666D01*
X013325Y001610D02*
X013268Y001666D01*
X013211Y001666D01*
X013155Y001610D01*
X013155Y001496D01*
X013211Y001440D01*
X018105Y008099D02*
X018105Y008249D01*
X018105Y008174D02*
X018555Y008174D01*
X018555Y008099D02*
X018555Y008249D01*
X018480Y008406D02*
X018555Y008481D01*
X018555Y008631D01*
X018480Y008706D01*
X018555Y008866D02*
X018555Y009166D01*
X018555Y009016D02*
X018105Y009016D01*
X018255Y008866D01*
X018180Y008706D02*
X018105Y008631D01*
X018105Y008481D01*
X018180Y008406D01*
X018480Y008406D01*
X018480Y009326D02*
X018555Y009401D01*
X018555Y009552D01*
X018480Y009627D01*
X018180Y009627D01*
X018105Y009552D01*
X018105Y009401D01*
X018180Y009326D01*
X018255Y009326D01*
X018330Y009401D01*
X018330Y009627D01*
X017355Y016999D02*
X016905Y016999D01*
X016905Y017224D01*
X016980Y017299D01*
X017280Y017299D01*
X017355Y017224D01*
X017355Y016999D01*
X017280Y017459D02*
X017205Y017459D01*
X017130Y017534D01*
X017130Y017684D01*
X017205Y017759D01*
X017280Y017759D01*
X017355Y017684D01*
X017355Y017534D01*
X017280Y017459D01*
X017130Y017534D02*
X017055Y017459D01*
X016980Y017459D01*
X016905Y017534D01*
X016905Y017684D01*
X016980Y017759D01*
X017055Y017759D01*
X017130Y017684D01*
X017052Y023011D02*
X016902Y023011D01*
X016827Y023086D01*
X017128Y023387D01*
X017128Y023086D01*
X017052Y023011D01*
X016827Y023086D02*
X016827Y023387D01*
X016902Y023462D01*
X017052Y023462D01*
X017128Y023387D01*
X016667Y023011D02*
X016367Y023011D01*
X016517Y023011D02*
X016517Y023462D01*
X016367Y023312D01*
X016207Y023387D02*
X016207Y023086D01*
X016132Y023011D01*
X015906Y023011D01*
X015906Y023462D01*
X016132Y023462D01*
X016207Y023387D01*
X017260Y025504D02*
X015100Y025504D01*
X015100Y025721D01*
X015100Y027326D02*
X015100Y027544D01*
X017260Y027544D01*
X017260Y027326D01*
X017260Y025721D02*
X017260Y025504D01*
X014868Y027716D02*
X014868Y027941D01*
X014793Y028016D01*
X014492Y028016D01*
X014417Y027941D01*
X014417Y027716D01*
X014868Y027716D01*
X014793Y028176D02*
X014868Y028251D01*
X014868Y028402D01*
X014793Y028477D01*
X014492Y028477D01*
X014417Y028402D01*
X014417Y028251D01*
X014492Y028176D01*
X014567Y028176D01*
X014642Y028251D01*
X014642Y028477D01*
X020656Y032511D02*
X020882Y032511D01*
X020957Y032586D01*
X020957Y032887D01*
X020882Y032962D01*
X020656Y032962D01*
X020656Y032511D01*
X021117Y032511D02*
X021417Y032511D01*
X021267Y032511D02*
X021267Y032962D01*
X021117Y032812D01*
X021577Y032887D02*
X021652Y032962D01*
X021802Y032962D01*
X021878Y032887D01*
X021878Y032812D01*
X021577Y032511D01*
X021878Y032511D01*
X019430Y034524D02*
X018930Y034524D01*
X018680Y034424D02*
X018430Y034174D01*
X015930Y034174D01*
X015680Y034424D01*
X015680Y036524D01*
X015930Y036774D01*
X015930Y039124D01*
X016180Y039374D01*
X018180Y039374D01*
X018430Y039124D01*
X018430Y036774D01*
X018680Y036524D01*
X018680Y034424D01*
X019180Y034274D02*
X019180Y034774D01*
X018680Y039024D02*
X018680Y039524D01*
X009430Y034524D02*
X008930Y034524D01*
X008680Y034424D02*
X008430Y034174D01*
X005930Y034174D01*
X005680Y034424D01*
X005680Y036524D01*
X005930Y036774D01*
X005930Y039124D01*
X006180Y039374D01*
X008180Y039374D01*
X008430Y039124D01*
X008430Y036774D01*
X008680Y036524D01*
X008680Y034424D01*
X009180Y034274D02*
X009180Y034774D01*
X008680Y039024D02*
X008680Y039524D01*
X025905Y024259D02*
X025980Y024259D01*
X026280Y023959D01*
X026355Y023959D01*
X026280Y023799D02*
X025980Y023799D01*
X025905Y023724D01*
X025905Y023499D01*
X026355Y023499D01*
X026355Y023724D01*
X026280Y023799D01*
X025905Y023959D02*
X025905Y024259D01*
X025530Y018009D02*
X025455Y018009D01*
X025380Y017934D01*
X025380Y017709D01*
X025530Y017709D01*
X025605Y017784D01*
X025605Y017934D01*
X025530Y018009D01*
X025230Y017859D02*
X025380Y017709D01*
X025230Y017859D02*
X025155Y018009D01*
X025230Y017549D02*
X025155Y017474D01*
X025155Y017249D01*
X025605Y017249D01*
X025605Y017474D01*
X025530Y017549D01*
X025230Y017549D01*
X033155Y017474D02*
X033155Y017249D01*
X033605Y017249D01*
X033605Y017474D01*
X033530Y017549D01*
X033230Y017549D01*
X033155Y017474D01*
X033380Y017709D02*
X033155Y017934D01*
X033605Y017934D01*
X033380Y018009D02*
X033380Y017709D01*
X041155Y017784D02*
X041230Y017709D01*
X041155Y017784D02*
X041155Y017934D01*
X041230Y018009D01*
X041305Y018009D01*
X041605Y017709D01*
X041605Y018009D01*
X041530Y017549D02*
X041230Y017549D01*
X041155Y017474D01*
X041155Y017249D01*
X041605Y017249D01*
X041605Y017474D01*
X041530Y017549D01*
X041905Y023499D02*
X041905Y023724D01*
X041980Y023799D01*
X042280Y023799D01*
X042355Y023724D01*
X042355Y023499D01*
X041905Y023499D01*
X041980Y023959D02*
X041905Y024034D01*
X041905Y024184D01*
X041980Y024259D01*
X042055Y024259D01*
X042130Y024184D01*
X042205Y024259D01*
X042280Y024259D01*
X042355Y024184D01*
X042355Y024034D01*
X042280Y023959D01*
X042130Y024109D02*
X042130Y024184D01*
X037895Y004499D02*
X037895Y004049D01*
X037745Y004049D02*
X038045Y004049D01*
X037745Y004349D02*
X037895Y004499D01*
X037584Y004424D02*
X037584Y004274D01*
X037509Y004199D01*
X037284Y004199D01*
X037284Y004049D02*
X037284Y004499D01*
X037509Y004499D01*
X037584Y004424D01*
X037124Y004424D02*
X037049Y004499D01*
X036899Y004499D01*
X036824Y004424D01*
X036824Y004349D01*
X036899Y004274D01*
X037049Y004274D01*
X037124Y004199D01*
X037124Y004124D01*
X037049Y004049D01*
X036899Y004049D01*
X036824Y004124D01*
X036667Y004049D02*
X036517Y004049D01*
X036592Y004049D02*
X036592Y004499D01*
X036517Y004499D02*
X036667Y004499D01*
X007355Y023399D02*
X006905Y023399D01*
X006905Y023249D02*
X006905Y023549D01*
X007055Y023709D02*
X006905Y023859D01*
X007355Y023859D01*
X007355Y023709D02*
X007355Y024009D01*
X006530Y021024D02*
X004180Y021024D01*
X003930Y021274D01*
X001830Y021274D01*
X001580Y021024D01*
X001580Y018524D01*
X001830Y018274D01*
X003930Y018274D01*
X004180Y018524D01*
X006530Y018524D01*
X006780Y018774D01*
X006780Y020774D01*
X006530Y021024D01*
X006430Y018274D02*
X006930Y018274D01*
X003680Y017774D02*
X003180Y017774D01*
X003430Y018024D02*
X003430Y017524D01*
D15*
X014430Y008144D02*
X017930Y008144D01*
X020280Y014965D02*
X020280Y016582D01*
X022080Y016582D01*
X022080Y014965D01*
X020280Y014965D01*
X028280Y014965D02*
X028280Y016582D01*
X030080Y016582D01*
X030080Y014965D01*
X028280Y014965D01*
X036280Y014965D02*
X036280Y016582D01*
X038080Y016582D01*
X038080Y014965D01*
X036280Y014965D01*
X044280Y014965D02*
X044280Y016582D01*
X046080Y016582D01*
X046080Y014965D01*
X044280Y014965D01*
D16*
X042660Y014774D02*
X042660Y014620D01*
X042583Y014544D01*
X042276Y014544D01*
X042200Y014620D01*
X042200Y014774D01*
X042276Y014851D01*
X042430Y015004D02*
X042430Y015311D01*
X042660Y015234D02*
X042200Y015234D01*
X042430Y015004D01*
X042583Y014851D02*
X042660Y014774D01*
X043856Y013254D02*
X043779Y013177D01*
X043779Y012870D01*
X043856Y012794D01*
X044009Y012794D01*
X044086Y012870D01*
X044240Y012794D02*
X044547Y013101D01*
X044547Y013177D01*
X044470Y013254D01*
X044316Y013254D01*
X044240Y013177D01*
X044086Y013177D02*
X044009Y013254D01*
X043856Y013254D01*
X044240Y012794D02*
X044547Y012794D01*
X045779Y012870D02*
X045856Y012794D01*
X046009Y012794D01*
X046086Y012870D01*
X046240Y012870D02*
X046316Y012794D01*
X046470Y012794D01*
X046547Y012870D01*
X046547Y012947D01*
X046470Y013024D01*
X046393Y013024D01*
X046470Y013024D02*
X046547Y013101D01*
X046547Y013177D01*
X046470Y013254D01*
X046316Y013254D01*
X046240Y013177D01*
X046086Y013177D02*
X046009Y013254D01*
X045856Y013254D01*
X045779Y013177D01*
X045779Y012870D01*
X046340Y014882D02*
X046340Y015002D01*
X046340Y014942D02*
X046700Y014942D01*
X046700Y014882D02*
X046700Y015002D01*
X046640Y015127D02*
X046700Y015187D01*
X046700Y015307D01*
X046640Y015367D01*
X046700Y015495D02*
X046700Y015736D01*
X046700Y015615D02*
X046340Y015615D01*
X046460Y015495D01*
X046400Y015367D02*
X046340Y015307D01*
X046340Y015187D01*
X046400Y015127D01*
X046640Y015127D01*
X047700Y015450D02*
X047700Y015603D01*
X047776Y015680D01*
X047700Y015833D02*
X047930Y015833D01*
X047853Y015987D01*
X047853Y016064D01*
X047930Y016140D01*
X048083Y016140D01*
X048160Y016064D01*
X048160Y015910D01*
X048083Y015833D01*
X048083Y015680D02*
X048160Y015603D01*
X048160Y015450D01*
X048083Y015373D01*
X047776Y015373D01*
X047700Y015450D01*
X047700Y015833D02*
X047700Y016140D01*
X048450Y017794D02*
X048450Y017947D01*
X048450Y017870D02*
X048910Y017870D01*
X048910Y017794D02*
X048910Y017947D01*
X048833Y018101D02*
X048910Y018177D01*
X048910Y018331D01*
X048833Y018408D01*
X048833Y018561D02*
X048910Y018638D01*
X048910Y018791D01*
X048833Y018868D01*
X048680Y018868D01*
X048603Y018791D01*
X048603Y018714D01*
X048680Y018561D01*
X048450Y018561D01*
X048450Y018868D01*
X048700Y019294D02*
X048700Y019447D01*
X048700Y019370D02*
X049160Y019370D01*
X049160Y019294D02*
X049160Y019447D01*
X049083Y019601D02*
X049160Y019677D01*
X049160Y019831D01*
X049083Y019908D01*
X049083Y020061D02*
X049160Y020138D01*
X049160Y020291D01*
X049083Y020368D01*
X049007Y020368D01*
X048930Y020291D01*
X048930Y020061D01*
X049083Y020061D01*
X048930Y020061D02*
X048776Y020214D01*
X048700Y020368D01*
X048776Y019908D02*
X048700Y019831D01*
X048700Y019677D01*
X048776Y019601D01*
X049083Y019601D01*
X048526Y018408D02*
X048450Y018331D01*
X048450Y018177D01*
X048526Y018101D01*
X048833Y018101D01*
X047851Y020794D02*
X047928Y020870D01*
X047928Y020947D01*
X047851Y021024D01*
X047621Y021024D01*
X047621Y020870D01*
X047698Y020794D01*
X047851Y020794D01*
X047621Y021024D02*
X047774Y021177D01*
X047928Y021254D01*
X047314Y021254D02*
X047314Y020794D01*
X047467Y020794D02*
X047160Y020794D01*
X047007Y020794D02*
X046853Y020947D01*
X046930Y020947D02*
X046700Y020947D01*
X046700Y020794D02*
X046700Y021254D01*
X046930Y021254D01*
X047007Y021177D01*
X047007Y021024D01*
X046930Y020947D01*
X047160Y021101D02*
X047314Y021254D01*
X044638Y022044D02*
X044331Y022044D01*
X044485Y022044D02*
X044485Y022504D01*
X044331Y022351D01*
X044178Y022427D02*
X044101Y022504D01*
X043948Y022504D01*
X043871Y022427D01*
X043871Y022120D01*
X043948Y022044D01*
X044101Y022044D01*
X044178Y022120D01*
X043717Y022504D02*
X043410Y022504D01*
X043564Y022504D02*
X043564Y022044D01*
X043257Y022274D02*
X043180Y022197D01*
X042950Y022197D01*
X042950Y022044D02*
X042950Y022504D01*
X043180Y022504D01*
X043257Y022427D01*
X043257Y022274D01*
X042638Y022351D02*
X042638Y022427D01*
X042561Y022504D01*
X042408Y022504D01*
X042331Y022427D01*
X042178Y022427D02*
X042101Y022504D01*
X041948Y022504D01*
X041871Y022427D01*
X041871Y022120D01*
X041948Y022044D01*
X042101Y022044D01*
X042178Y022120D01*
X042331Y022044D02*
X042638Y022351D01*
X042638Y022044D02*
X042331Y022044D01*
X041717Y022504D02*
X041410Y022504D01*
X041564Y022504D02*
X041564Y022044D01*
X041257Y022274D02*
X041180Y022197D01*
X040950Y022197D01*
X040950Y022044D02*
X040950Y022504D01*
X041180Y022504D01*
X041257Y022427D01*
X041257Y022274D01*
X040178Y022677D02*
X039871Y022370D01*
X039871Y022294D01*
X039717Y022294D02*
X039410Y022294D01*
X039257Y022294D02*
X039103Y022447D01*
X039180Y022447D02*
X038950Y022447D01*
X038950Y022294D02*
X038950Y022754D01*
X039180Y022754D01*
X039257Y022677D01*
X039257Y022524D01*
X039180Y022447D01*
X039410Y022601D02*
X039564Y022754D01*
X039564Y022294D01*
X039871Y022754D02*
X040178Y022754D01*
X040178Y022677D01*
X039268Y024464D02*
X039268Y024524D01*
X039509Y024764D01*
X039509Y024824D01*
X039268Y024824D01*
X039140Y024824D02*
X038900Y024824D01*
X039020Y024824D02*
X039020Y024464D01*
X036467Y024620D02*
X036391Y024544D01*
X036237Y024544D01*
X036160Y024620D01*
X036007Y024544D02*
X035853Y024697D01*
X035930Y024697D02*
X035700Y024697D01*
X035700Y024544D02*
X035700Y025004D01*
X035930Y025004D01*
X036007Y024927D01*
X036007Y024774D01*
X035930Y024697D01*
X036160Y024851D02*
X036237Y024774D01*
X036467Y024774D01*
X036467Y024927D02*
X036391Y025004D01*
X036237Y025004D01*
X036160Y024927D01*
X036160Y024851D01*
X036467Y024927D02*
X036467Y024620D01*
X036408Y022504D02*
X036331Y022427D01*
X036408Y022504D02*
X036561Y022504D01*
X036638Y022427D01*
X036638Y022351D01*
X036561Y022274D01*
X036638Y022197D01*
X036638Y022120D01*
X036561Y022044D01*
X036408Y022044D01*
X036331Y022120D01*
X036178Y022120D02*
X036101Y022044D01*
X035948Y022044D01*
X035871Y022120D01*
X035871Y022427D01*
X035948Y022504D01*
X036101Y022504D01*
X036178Y022427D01*
X036485Y022274D02*
X036561Y022274D01*
X035717Y022504D02*
X035410Y022504D01*
X035564Y022504D02*
X035564Y022044D01*
X035257Y022274D02*
X035180Y022197D01*
X034950Y022197D01*
X034950Y022044D02*
X034950Y022504D01*
X035180Y022504D01*
X035257Y022427D01*
X035257Y022274D01*
X034638Y022274D02*
X034331Y022274D01*
X034561Y022504D01*
X034561Y022044D01*
X034178Y022120D02*
X034101Y022044D01*
X033948Y022044D01*
X033871Y022120D01*
X033871Y022427D01*
X033948Y022504D01*
X034101Y022504D01*
X034178Y022427D01*
X033717Y022504D02*
X033410Y022504D01*
X033564Y022504D02*
X033564Y022044D01*
X033257Y022274D02*
X033180Y022197D01*
X032950Y022197D01*
X032950Y022044D02*
X032950Y022504D01*
X033180Y022504D01*
X033257Y022427D01*
X033257Y022274D01*
X031928Y021177D02*
X031928Y021101D01*
X031851Y021024D01*
X031698Y021024D01*
X031621Y021101D01*
X031621Y021177D01*
X031698Y021254D01*
X031851Y021254D01*
X031928Y021177D01*
X031851Y021024D02*
X031928Y020947D01*
X031928Y020870D01*
X031851Y020794D01*
X031698Y020794D01*
X031621Y020870D01*
X031621Y020947D01*
X031698Y021024D01*
X031467Y020794D02*
X031160Y020794D01*
X031007Y020794D02*
X030853Y020947D01*
X030930Y020947D02*
X030700Y020947D01*
X030700Y020794D02*
X030700Y021254D01*
X030930Y021254D01*
X031007Y021177D01*
X031007Y021024D01*
X030930Y020947D01*
X031160Y021101D02*
X031314Y021254D01*
X031314Y020794D01*
X032700Y020502D02*
X032930Y020271D01*
X032930Y020578D01*
X033160Y020502D02*
X032700Y020502D01*
X033160Y020118D02*
X033160Y019811D01*
X033160Y019964D02*
X032700Y019964D01*
X032853Y019811D01*
X032776Y019658D02*
X032700Y019581D01*
X032700Y019427D01*
X032776Y019351D01*
X033083Y019351D01*
X033160Y019427D01*
X033160Y019581D01*
X033083Y019658D01*
X033160Y019197D02*
X033160Y019044D01*
X033128Y019004D02*
X033205Y018927D01*
X033205Y018774D01*
X033128Y018697D01*
X032898Y018697D01*
X032910Y018752D02*
X032910Y018598D01*
X032833Y018521D01*
X032898Y018544D02*
X032898Y019004D01*
X033128Y019004D01*
X033160Y019120D02*
X032700Y019120D01*
X032700Y019044D02*
X032700Y019197D01*
X032757Y018828D02*
X032833Y018828D01*
X032910Y018752D01*
X032757Y018828D02*
X032680Y018752D01*
X032680Y018675D01*
X032680Y018752D02*
X032603Y018828D01*
X032526Y018828D01*
X032450Y018752D01*
X032450Y018598D01*
X032526Y018521D01*
X032450Y018214D02*
X032910Y018214D01*
X032910Y018061D02*
X032910Y018368D01*
X032603Y018061D02*
X032450Y018214D01*
X032526Y017908D02*
X032450Y017831D01*
X032450Y017677D01*
X032526Y017601D01*
X032833Y017601D01*
X032910Y017677D01*
X032910Y017831D01*
X032833Y017908D01*
X032910Y017447D02*
X032910Y017294D01*
X032910Y017370D02*
X032450Y017370D01*
X032450Y017294D02*
X032450Y017447D01*
X032160Y017195D02*
X032083Y017271D01*
X032007Y017271D01*
X031930Y017195D01*
X031930Y016964D01*
X032083Y016964D01*
X032160Y017041D01*
X032160Y017195D01*
X031930Y016964D02*
X031776Y017118D01*
X031700Y017271D01*
X031776Y016811D02*
X031700Y016734D01*
X031700Y016581D01*
X031776Y016504D01*
X031776Y016351D02*
X031700Y016274D01*
X031700Y016120D01*
X031776Y016044D01*
X032083Y016044D01*
X032160Y016120D01*
X032160Y016274D01*
X032083Y016351D01*
X032160Y016504D02*
X031853Y016811D01*
X031776Y016811D01*
X032160Y016811D02*
X032160Y016504D01*
X030700Y016486D02*
X030700Y016245D01*
X030700Y016365D02*
X030340Y016365D01*
X030460Y016245D01*
X030700Y016117D02*
X030700Y015877D01*
X030700Y015997D02*
X030340Y015997D01*
X030460Y015877D01*
X030400Y015749D02*
X030340Y015689D01*
X030340Y015569D01*
X030400Y015509D01*
X030640Y015509D01*
X030700Y015569D01*
X030700Y015689D01*
X030640Y015749D01*
X030700Y015383D02*
X030700Y015263D01*
X030700Y015323D02*
X030340Y015323D01*
X030340Y015263D02*
X030340Y015383D01*
X030259Y013254D02*
X030106Y013254D01*
X030029Y013177D01*
X029876Y013177D02*
X029799Y013254D01*
X029646Y013254D01*
X029569Y013177D01*
X029569Y012870D01*
X029646Y012794D01*
X029799Y012794D01*
X029876Y012870D01*
X030029Y012794D02*
X030336Y013101D01*
X030336Y013177D01*
X030259Y013254D01*
X030490Y013024D02*
X030797Y013024D01*
X030720Y013254D02*
X030490Y013024D01*
X030336Y012794D02*
X030029Y012794D01*
X030720Y012794D02*
X030720Y013254D01*
X028797Y013177D02*
X028797Y013101D01*
X028720Y013024D01*
X028797Y012947D01*
X028797Y012870D01*
X028720Y012794D01*
X028566Y012794D01*
X028490Y012870D01*
X028336Y012794D02*
X028029Y012794D01*
X028336Y013101D01*
X028336Y013177D01*
X028259Y013254D01*
X028106Y013254D01*
X028029Y013177D01*
X027876Y013177D02*
X027799Y013254D01*
X027646Y013254D01*
X027569Y013177D01*
X027569Y012870D01*
X027646Y012794D01*
X027799Y012794D01*
X027876Y012870D01*
X028490Y013177D02*
X028566Y013254D01*
X028720Y013254D01*
X028797Y013177D01*
X028720Y013024D02*
X028643Y013024D01*
X029776Y010390D02*
X029853Y010390D01*
X029930Y010314D01*
X030007Y010390D01*
X030083Y010390D01*
X030160Y010314D01*
X030160Y010160D01*
X030083Y010083D01*
X030160Y009930D02*
X030160Y009623D01*
X029700Y009623D01*
X029776Y010083D02*
X029700Y010160D01*
X029700Y010314D01*
X029776Y010390D01*
X029930Y010314D02*
X029930Y010237D01*
X031950Y009677D02*
X031950Y009370D01*
X032027Y009294D01*
X032180Y009294D01*
X032257Y009370D01*
X032410Y009294D02*
X032717Y009294D01*
X032564Y009294D02*
X032564Y009754D01*
X032410Y009601D01*
X032257Y009677D02*
X032180Y009754D01*
X032027Y009754D01*
X031950Y009677D01*
X032027Y009004D02*
X031950Y008927D01*
X031950Y008620D01*
X032027Y008544D01*
X032180Y008544D01*
X032257Y008620D01*
X032410Y008544D02*
X032717Y008544D01*
X032564Y008544D02*
X032564Y009004D01*
X032410Y008851D01*
X032257Y008927D02*
X032180Y009004D01*
X032027Y009004D01*
X032027Y008254D02*
X031950Y008177D01*
X031950Y007870D01*
X032027Y007794D01*
X032180Y007794D01*
X032257Y007870D01*
X032410Y007870D02*
X032487Y007794D01*
X032641Y007794D01*
X032717Y007870D01*
X032717Y008177D01*
X032641Y008254D01*
X032487Y008254D01*
X032410Y008177D01*
X032410Y008101D01*
X032487Y008024D01*
X032717Y008024D01*
X032257Y008177D02*
X032180Y008254D01*
X032027Y008254D01*
X032027Y007504D02*
X031950Y007427D01*
X031950Y007120D01*
X032027Y007044D01*
X032180Y007044D01*
X032257Y007120D01*
X032410Y007044D02*
X032717Y007044D01*
X032564Y007044D02*
X032564Y007504D01*
X032410Y007351D01*
X032257Y007427D02*
X032180Y007504D01*
X032027Y007504D01*
X032871Y007427D02*
X032948Y007504D01*
X033101Y007504D01*
X033178Y007427D01*
X033178Y007351D01*
X032871Y007044D01*
X033178Y007044D01*
X034200Y007064D02*
X034430Y006833D01*
X034430Y007140D01*
X034660Y007064D02*
X034200Y007064D01*
X034660Y006680D02*
X034660Y006373D01*
X034660Y006526D02*
X034200Y006526D01*
X034353Y006373D01*
X034276Y006219D02*
X034430Y006219D01*
X034507Y006143D01*
X034507Y005913D01*
X034507Y006066D02*
X034660Y006219D01*
X034660Y005913D02*
X034200Y005913D01*
X034200Y006143D01*
X034276Y006219D01*
X034200Y005390D02*
X034200Y005083D01*
X034430Y005083D01*
X034353Y005237D01*
X034353Y005314D01*
X034430Y005390D01*
X034583Y005390D01*
X034660Y005314D01*
X034660Y005160D01*
X034583Y005083D01*
X034660Y004930D02*
X034660Y004623D01*
X034660Y004776D02*
X034200Y004776D01*
X034353Y004623D01*
X034276Y004469D02*
X034430Y004469D01*
X034507Y004393D01*
X034507Y004163D01*
X034507Y004316D02*
X034660Y004469D01*
X034660Y004163D02*
X034200Y004163D01*
X034200Y004393D01*
X034276Y004469D01*
X030160Y005623D02*
X030160Y005930D01*
X030160Y006083D02*
X029853Y006390D01*
X029776Y006390D01*
X029700Y006314D01*
X029700Y006160D01*
X029776Y006083D01*
X030160Y006083D02*
X030160Y006390D01*
X030160Y005623D02*
X029700Y005623D01*
X028082Y003862D02*
X028159Y003786D01*
X028159Y003709D01*
X028082Y003632D01*
X028159Y003555D01*
X028159Y003479D01*
X028082Y003402D01*
X027929Y003402D01*
X027852Y003479D01*
X027698Y003479D02*
X027622Y003402D01*
X027468Y003402D01*
X027391Y003479D01*
X027391Y003786D01*
X027468Y003862D01*
X027622Y003862D01*
X027698Y003786D01*
X027852Y003786D02*
X027929Y003862D01*
X028082Y003862D01*
X028082Y003632D02*
X028005Y003632D01*
X027238Y003402D02*
X027084Y003402D01*
X027161Y003402D02*
X027161Y003862D01*
X027084Y003862D02*
X027238Y003862D01*
X027330Y002528D02*
X027253Y002451D01*
X027253Y002374D01*
X027330Y002298D01*
X027483Y002298D01*
X027560Y002221D01*
X027560Y002144D01*
X027483Y002067D01*
X027330Y002067D01*
X027253Y002144D01*
X027330Y002528D02*
X027483Y002528D01*
X027560Y002451D01*
X027713Y002451D02*
X027790Y002528D01*
X027944Y002528D01*
X028020Y002451D01*
X028020Y002374D01*
X027713Y002067D01*
X028020Y002067D01*
X023217Y002294D02*
X022910Y002294D01*
X023217Y002601D01*
X023217Y002677D01*
X023141Y002754D01*
X022987Y002754D01*
X022910Y002677D01*
X022757Y002754D02*
X022757Y002370D01*
X022680Y002294D01*
X022527Y002294D01*
X022450Y002370D01*
X022450Y002754D01*
X020138Y003120D02*
X020061Y003044D01*
X019908Y003044D01*
X019831Y003120D01*
X019678Y003120D02*
X019678Y003427D01*
X019601Y003504D01*
X019371Y003504D01*
X019371Y003044D01*
X019601Y003044D01*
X019678Y003120D01*
X019985Y003274D02*
X020061Y003274D01*
X020138Y003197D01*
X020138Y003120D01*
X020061Y003274D02*
X020138Y003351D01*
X020138Y003427D01*
X020061Y003504D01*
X019908Y003504D01*
X019831Y003427D01*
X019833Y003544D02*
X019910Y003620D01*
X019910Y003774D01*
X019833Y003851D01*
X019680Y004004D02*
X019680Y004311D01*
X019833Y004464D02*
X019526Y004771D01*
X019450Y004771D01*
X019450Y004464D01*
X019450Y004234D02*
X019680Y004004D01*
X019526Y003851D02*
X019450Y003774D01*
X019450Y003620D01*
X019526Y003544D01*
X019833Y003544D01*
X019217Y003504D02*
X018910Y003504D01*
X018910Y003044D01*
X019217Y003044D01*
X019064Y003274D02*
X018910Y003274D01*
X018757Y003044D02*
X018450Y003044D01*
X018450Y003504D01*
X017460Y003384D02*
X017460Y001494D01*
X016554Y001494D01*
X015806Y001494D02*
X014900Y001494D01*
X014900Y003384D01*
X015570Y004053D01*
X015806Y004053D01*
X016554Y004053D02*
X016790Y004053D01*
X017460Y003384D01*
X017410Y004044D02*
X016950Y004044D01*
X016950Y004274D01*
X017026Y004351D01*
X017180Y004351D01*
X017257Y004274D01*
X017257Y004044D01*
X017257Y004197D02*
X017410Y004351D01*
X017410Y004504D02*
X017103Y004811D01*
X017026Y004811D01*
X016950Y004734D01*
X016950Y004581D01*
X017026Y004504D01*
X017410Y004504D02*
X017410Y004811D01*
X017333Y004964D02*
X017257Y004964D01*
X017180Y005041D01*
X017180Y005195D01*
X017257Y005271D01*
X017333Y005271D01*
X017410Y005195D01*
X017410Y005041D01*
X017333Y004964D01*
X017180Y005041D02*
X017103Y004964D01*
X017026Y004964D01*
X016950Y005041D01*
X016950Y005195D01*
X017026Y005271D01*
X017103Y005271D01*
X017180Y005195D01*
X019450Y004234D02*
X019910Y004234D01*
X019910Y004464D02*
X019833Y004464D01*
X019950Y006294D02*
X019950Y006524D01*
X020026Y006601D01*
X020180Y006601D01*
X020257Y006524D01*
X020257Y006294D01*
X020410Y006294D02*
X019950Y006294D01*
X020257Y006447D02*
X020410Y006601D01*
X020333Y006754D02*
X020410Y006831D01*
X020410Y006984D01*
X020333Y007061D01*
X020257Y007061D01*
X020180Y006984D01*
X020180Y006908D01*
X020180Y006984D02*
X020103Y007061D01*
X020026Y007061D01*
X019950Y006984D01*
X019950Y006831D01*
X020026Y006754D01*
X019660Y009044D02*
X019200Y009044D01*
X019660Y009044D02*
X019660Y009351D01*
X019660Y009504D02*
X019200Y009504D01*
X019200Y009811D01*
X019200Y009964D02*
X019200Y010195D01*
X019276Y010271D01*
X019583Y010271D01*
X019660Y010195D01*
X019660Y009964D01*
X019200Y009964D01*
X019430Y009658D02*
X019430Y009504D01*
X019660Y009504D02*
X019660Y009811D01*
X019660Y010425D02*
X019660Y010732D01*
X019660Y010578D02*
X019200Y010578D01*
X019353Y010425D01*
X019696Y012944D02*
X019849Y012944D01*
X019926Y013020D01*
X020079Y013020D02*
X020156Y012944D01*
X020309Y012944D01*
X020386Y013020D01*
X020386Y013097D01*
X020309Y013174D01*
X020233Y013174D01*
X020309Y013174D02*
X020386Y013251D01*
X020386Y013327D01*
X020309Y013404D01*
X020156Y013404D01*
X020079Y013327D01*
X019926Y013327D02*
X019849Y013404D01*
X019696Y013404D01*
X019619Y013327D01*
X019619Y013020D01*
X019696Y012944D01*
X020540Y013020D02*
X020847Y013327D01*
X020847Y013020D01*
X020770Y012944D01*
X020616Y012944D01*
X020540Y013020D01*
X020540Y013327D01*
X020616Y013404D01*
X020770Y013404D01*
X020847Y013327D01*
X021269Y013327D02*
X021269Y013020D01*
X021346Y012944D01*
X021499Y012944D01*
X021576Y013020D01*
X021729Y013020D02*
X021806Y012944D01*
X021959Y012944D01*
X022036Y013020D01*
X022036Y013097D01*
X021959Y013174D01*
X021883Y013174D01*
X021959Y013174D02*
X022036Y013251D01*
X022036Y013327D01*
X021959Y013404D01*
X021806Y013404D01*
X021729Y013327D01*
X021576Y013327D02*
X021499Y013404D01*
X021346Y013404D01*
X021269Y013327D01*
X022190Y013251D02*
X022343Y013404D01*
X022343Y012944D01*
X022190Y012944D02*
X022497Y012944D01*
X022340Y015263D02*
X022340Y015383D01*
X022340Y015323D02*
X022700Y015323D01*
X022700Y015263D02*
X022700Y015383D01*
X022640Y015509D02*
X022700Y015569D01*
X022700Y015689D01*
X022640Y015749D01*
X022700Y015877D02*
X022700Y016117D01*
X022700Y015997D02*
X022340Y015997D01*
X022460Y015877D01*
X022400Y015749D02*
X022340Y015689D01*
X022340Y015569D01*
X022400Y015509D01*
X022640Y015509D01*
X022640Y016245D02*
X022700Y016305D01*
X022700Y016426D01*
X022640Y016486D01*
X022520Y016486D01*
X022460Y016426D01*
X022460Y016365D01*
X022520Y016245D01*
X022340Y016245D01*
X022340Y016486D01*
X023700Y016484D02*
X023700Y016331D01*
X023776Y016254D01*
X023776Y016101D02*
X023700Y016024D01*
X023700Y015870D01*
X023776Y015794D01*
X024083Y015794D01*
X024160Y015870D01*
X024160Y016024D01*
X024083Y016101D01*
X024083Y016254D02*
X024160Y016331D01*
X024160Y016484D01*
X024083Y016561D01*
X024007Y016561D01*
X023930Y016484D01*
X023930Y016408D01*
X023930Y016484D02*
X023853Y016561D01*
X023776Y016561D01*
X023700Y016484D01*
X023776Y016714D02*
X023700Y016791D01*
X023700Y016945D01*
X023776Y017021D01*
X023853Y017021D01*
X023930Y016945D01*
X024007Y017021D01*
X024083Y017021D01*
X024160Y016945D01*
X024160Y016791D01*
X024083Y016714D01*
X023930Y016868D02*
X023930Y016945D01*
X024450Y017294D02*
X024450Y017447D01*
X024450Y017370D02*
X024910Y017370D01*
X024910Y017294D02*
X024910Y017447D01*
X024833Y017601D02*
X024910Y017677D01*
X024910Y017831D01*
X024833Y017908D01*
X024910Y018061D02*
X024910Y018368D01*
X024910Y018521D02*
X024833Y018521D01*
X024526Y018828D01*
X024450Y018828D01*
X024450Y018521D01*
X024450Y018214D02*
X024910Y018214D01*
X024603Y018061D02*
X024450Y018214D01*
X024526Y017908D02*
X024450Y017831D01*
X024450Y017677D01*
X024526Y017601D01*
X024833Y017601D01*
X026200Y016771D02*
X026200Y016464D01*
X026430Y016464D01*
X026353Y016618D01*
X026353Y016695D01*
X026430Y016771D01*
X026583Y016771D01*
X026660Y016695D01*
X026660Y016541D01*
X026583Y016464D01*
X026660Y016311D02*
X026660Y016004D01*
X026353Y016311D01*
X026276Y016311D01*
X026200Y016234D01*
X026200Y016081D01*
X026276Y016004D01*
X026276Y015851D02*
X026200Y015774D01*
X026200Y015620D01*
X026276Y015544D01*
X026583Y015544D01*
X026660Y015620D01*
X026660Y015774D01*
X026583Y015851D01*
X027277Y018044D02*
X027430Y018044D01*
X027507Y018120D01*
X027660Y018044D02*
X027967Y018351D01*
X027967Y018427D01*
X027891Y018504D01*
X027737Y018504D01*
X027660Y018427D01*
X027507Y018427D02*
X027430Y018504D01*
X027277Y018504D01*
X027200Y018427D01*
X027200Y018120D01*
X027277Y018044D01*
X027660Y018044D02*
X027967Y018044D01*
X028121Y018044D02*
X028121Y018120D01*
X028428Y018427D01*
X028428Y018504D01*
X028121Y018504D01*
X027348Y018544D02*
X027042Y018544D01*
X027195Y018544D02*
X027195Y019004D01*
X027042Y018851D01*
X026735Y019004D02*
X026735Y018544D01*
X026888Y018544D02*
X026581Y018544D01*
X026428Y018620D02*
X026351Y018544D01*
X026198Y018544D01*
X026121Y018620D01*
X026121Y018927D01*
X026198Y019004D01*
X026351Y019004D01*
X026428Y018927D01*
X026581Y018851D02*
X026735Y019004D01*
X025967Y019004D02*
X025660Y019004D01*
X025814Y019004D02*
X025814Y018544D01*
X025507Y018774D02*
X025507Y018927D01*
X025430Y019004D01*
X025200Y019004D01*
X025200Y018544D01*
X025200Y018697D02*
X025430Y018697D01*
X025507Y018774D01*
X025160Y019044D02*
X025160Y019197D01*
X025160Y019120D02*
X024700Y019120D01*
X024700Y019044D02*
X024700Y019197D01*
X024776Y019351D02*
X024700Y019427D01*
X024700Y019581D01*
X024776Y019658D01*
X024853Y019811D02*
X024700Y019964D01*
X025160Y019964D01*
X025160Y019811D02*
X025160Y020118D01*
X025083Y020271D02*
X025007Y020271D01*
X024930Y020348D01*
X024930Y020502D01*
X025007Y020578D01*
X025083Y020578D01*
X025160Y020502D01*
X025160Y020348D01*
X025083Y020271D01*
X024930Y020348D02*
X024853Y020271D01*
X024776Y020271D01*
X024700Y020348D01*
X024700Y020502D01*
X024776Y020578D01*
X024853Y020578D01*
X024930Y020502D01*
X025083Y019658D02*
X025160Y019581D01*
X025160Y019427D01*
X025083Y019351D01*
X024776Y019351D01*
X024950Y022044D02*
X024950Y022504D01*
X025180Y022504D01*
X025257Y022427D01*
X025257Y022274D01*
X025180Y022197D01*
X024950Y022197D01*
X025410Y022504D02*
X025717Y022504D01*
X025564Y022504D02*
X025564Y022044D01*
X025871Y022120D02*
X025948Y022044D01*
X026101Y022044D01*
X026178Y022120D01*
X026331Y022120D02*
X026408Y022044D01*
X026561Y022044D01*
X026638Y022120D01*
X026638Y022197D01*
X026561Y022274D01*
X026331Y022274D01*
X026331Y022120D01*
X026331Y022274D02*
X026485Y022427D01*
X026638Y022504D01*
X026950Y022504D02*
X026950Y022044D01*
X026950Y022197D02*
X027180Y022197D01*
X027257Y022274D01*
X027257Y022427D01*
X027180Y022504D01*
X026950Y022504D01*
X027410Y022504D02*
X027717Y022504D01*
X027564Y022504D02*
X027564Y022044D01*
X027871Y022120D02*
X027948Y022044D01*
X028101Y022044D01*
X028178Y022120D01*
X028331Y022120D02*
X028408Y022044D01*
X028561Y022044D01*
X028638Y022120D01*
X028638Y022274D01*
X028561Y022351D01*
X028485Y022351D01*
X028331Y022274D01*
X028331Y022504D01*
X028638Y022504D01*
X028178Y022427D02*
X028101Y022504D01*
X027948Y022504D01*
X027871Y022427D01*
X027871Y022120D01*
X026178Y022427D02*
X026101Y022504D01*
X025948Y022504D01*
X025871Y022427D01*
X025871Y022120D01*
X024178Y022370D02*
X024178Y022677D01*
X024101Y022754D01*
X023948Y022754D01*
X023871Y022677D01*
X023871Y022601D01*
X023948Y022524D01*
X024178Y022524D01*
X024178Y022370D02*
X024101Y022294D01*
X023948Y022294D01*
X023871Y022370D01*
X023717Y022294D02*
X023410Y022294D01*
X023257Y022294D02*
X023103Y022447D01*
X023180Y022447D02*
X022950Y022447D01*
X022950Y022294D02*
X022950Y022754D01*
X023180Y022754D01*
X023257Y022677D01*
X023257Y022524D01*
X023180Y022447D01*
X023410Y022601D02*
X023564Y022754D01*
X023564Y022294D01*
X023448Y024464D02*
X023509Y024524D01*
X023509Y024764D01*
X023448Y024824D01*
X023328Y024824D01*
X023268Y024764D01*
X023268Y024704D01*
X023328Y024644D01*
X023509Y024644D01*
X023448Y024464D02*
X023328Y024464D01*
X023268Y024524D01*
X023020Y024464D02*
X023020Y024824D01*
X022900Y024824D02*
X023140Y024824D01*
X021460Y026163D02*
X020790Y025494D01*
X020554Y025494D01*
X020774Y025004D02*
X020774Y024544D01*
X020621Y024544D02*
X020928Y024544D01*
X020621Y024851D02*
X020774Y025004D01*
X020314Y025004D02*
X020314Y024544D01*
X020467Y024544D02*
X020160Y024544D01*
X020007Y024544D02*
X019853Y024697D01*
X019930Y024697D02*
X019700Y024697D01*
X019700Y024544D02*
X019700Y025004D01*
X019930Y025004D01*
X020007Y024927D01*
X020007Y024774D01*
X019930Y024697D01*
X020160Y024851D02*
X020314Y025004D01*
X019806Y025494D02*
X019570Y025494D01*
X018900Y026163D01*
X018900Y028053D01*
X019806Y028053D01*
X020554Y028053D02*
X021460Y028053D01*
X021460Y026163D01*
X019806Y025613D02*
X019742Y025635D01*
X019679Y025662D01*
X019617Y025692D01*
X019558Y025725D01*
X019500Y025761D01*
X019444Y025801D01*
X019391Y025844D01*
X019340Y025889D01*
X019292Y025937D01*
X019247Y025988D01*
X019204Y026042D01*
X019165Y026098D01*
X019128Y026155D01*
X019095Y026215D01*
X019066Y026277D01*
X019040Y026340D01*
X019017Y026404D01*
X018998Y026470D01*
X018983Y026537D01*
X018972Y026604D01*
X018964Y026672D01*
X018960Y026740D01*
X018960Y026808D01*
X018964Y026876D01*
X018972Y026944D01*
X018983Y027011D01*
X018998Y027078D01*
X019017Y027144D01*
X019040Y027208D01*
X019066Y027271D01*
X019095Y027333D01*
X019128Y027393D01*
X019165Y027450D01*
X019204Y027506D01*
X019247Y027560D01*
X019292Y027611D01*
X019340Y027659D01*
X019391Y027704D01*
X019444Y027747D01*
X019500Y027787D01*
X019558Y027823D01*
X019617Y027856D01*
X019679Y027886D01*
X019742Y027913D01*
X019806Y027935D01*
X020554Y027935D02*
X020618Y027913D01*
X020681Y027886D01*
X020743Y027856D01*
X020802Y027823D01*
X020860Y027787D01*
X020916Y027747D01*
X020969Y027704D01*
X021020Y027659D01*
X021068Y027611D01*
X021113Y027560D01*
X021156Y027506D01*
X021195Y027450D01*
X021232Y027393D01*
X021265Y027333D01*
X021294Y027271D01*
X021320Y027208D01*
X021343Y027144D01*
X021362Y027078D01*
X021377Y027011D01*
X021388Y026944D01*
X021396Y026876D01*
X021400Y026808D01*
X021400Y026740D01*
X021396Y026672D01*
X021388Y026604D01*
X021377Y026537D01*
X021362Y026470D01*
X021343Y026404D01*
X021320Y026340D01*
X021294Y026277D01*
X021265Y026215D01*
X021232Y026155D01*
X021195Y026098D01*
X021156Y026042D01*
X021113Y025988D01*
X021068Y025937D01*
X021020Y025889D01*
X020969Y025844D01*
X020916Y025801D01*
X020860Y025761D01*
X020802Y025725D01*
X020743Y025692D01*
X020681Y025662D01*
X020618Y025635D01*
X020554Y025613D01*
X018110Y025723D02*
X018110Y026030D01*
X018110Y026183D02*
X018110Y026490D01*
X018110Y026337D02*
X017650Y026337D01*
X017803Y026183D01*
X017650Y025723D02*
X018110Y025723D01*
X018026Y028544D02*
X018333Y028544D01*
X018410Y028620D01*
X018410Y028774D01*
X018333Y028851D01*
X018180Y029004D02*
X018180Y029311D01*
X018026Y029464D02*
X017950Y029541D01*
X017950Y029695D01*
X018026Y029771D01*
X018103Y029771D01*
X018410Y029464D01*
X018410Y029771D01*
X018410Y029234D02*
X017950Y029234D01*
X018180Y029004D01*
X018026Y028851D02*
X017950Y028774D01*
X017950Y028620D01*
X018026Y028544D01*
X019900Y029494D02*
X019900Y031384D01*
X020570Y032053D01*
X020806Y032053D01*
X021554Y032053D02*
X021790Y032053D01*
X022460Y031384D01*
X022460Y029494D01*
X021554Y029494D01*
X020806Y029494D02*
X019900Y029494D01*
X021554Y029613D02*
X021618Y029635D01*
X021681Y029662D01*
X021743Y029692D01*
X021802Y029725D01*
X021860Y029761D01*
X021916Y029801D01*
X021969Y029844D01*
X022020Y029889D01*
X022068Y029937D01*
X022113Y029988D01*
X022156Y030042D01*
X022195Y030098D01*
X022232Y030155D01*
X022265Y030215D01*
X022294Y030277D01*
X022320Y030340D01*
X022343Y030404D01*
X022362Y030470D01*
X022377Y030537D01*
X022388Y030604D01*
X022396Y030672D01*
X022400Y030740D01*
X022400Y030808D01*
X022396Y030876D01*
X022388Y030944D01*
X022377Y031011D01*
X022362Y031078D01*
X022343Y031144D01*
X022320Y031208D01*
X022294Y031271D01*
X022265Y031333D01*
X022232Y031393D01*
X022195Y031450D01*
X022156Y031506D01*
X022113Y031560D01*
X022068Y031611D01*
X022020Y031659D01*
X021969Y031704D01*
X021916Y031747D01*
X021860Y031787D01*
X021802Y031823D01*
X021743Y031856D01*
X021681Y031886D01*
X021618Y031913D01*
X021554Y031935D01*
X020806Y031935D02*
X020742Y031913D01*
X020679Y031886D01*
X020617Y031856D01*
X020558Y031823D01*
X020500Y031787D01*
X020444Y031747D01*
X020391Y031704D01*
X020340Y031659D01*
X020292Y031611D01*
X020247Y031560D01*
X020204Y031506D01*
X020165Y031450D01*
X020128Y031393D01*
X020095Y031333D01*
X020066Y031271D01*
X020040Y031208D01*
X020017Y031144D01*
X019998Y031078D01*
X019983Y031011D01*
X019972Y030944D01*
X019964Y030876D01*
X019960Y030808D01*
X019960Y030740D01*
X019964Y030672D01*
X019972Y030604D01*
X019983Y030537D01*
X019998Y030470D01*
X020017Y030404D01*
X020040Y030340D01*
X020066Y030277D01*
X020095Y030215D01*
X020128Y030155D01*
X020165Y030098D01*
X020204Y030042D01*
X020247Y029988D01*
X020292Y029937D01*
X020340Y029889D01*
X020391Y029844D01*
X020444Y029801D01*
X020500Y029761D01*
X020558Y029725D01*
X020617Y029692D01*
X020679Y029662D01*
X020742Y029635D01*
X020806Y029613D01*
X018410Y031620D02*
X018410Y031774D01*
X018333Y031851D01*
X018333Y032004D02*
X018026Y032311D01*
X017950Y032311D01*
X017950Y032004D01*
X018026Y031851D02*
X017950Y031774D01*
X017950Y031620D01*
X018026Y031544D01*
X018333Y031544D01*
X018410Y031620D01*
X018410Y032004D02*
X018333Y032004D01*
X018257Y032544D02*
X018103Y032697D01*
X018180Y032697D02*
X017950Y032697D01*
X017950Y032544D02*
X017950Y033004D01*
X018180Y033004D01*
X018257Y032927D01*
X018257Y032774D01*
X018180Y032697D01*
X018410Y032544D02*
X018717Y032851D01*
X018717Y032927D01*
X018641Y033004D01*
X018487Y033004D01*
X018410Y032927D01*
X018410Y032544D02*
X018717Y032544D01*
X018871Y032544D02*
X019178Y032851D01*
X019178Y032927D01*
X019101Y033004D01*
X018948Y033004D01*
X018871Y032927D01*
X018871Y032544D02*
X019178Y032544D01*
X015160Y031640D02*
X015160Y031333D01*
X015160Y031487D02*
X014700Y031487D01*
X014853Y031333D01*
X014930Y031180D02*
X014930Y030873D01*
X014700Y031103D01*
X015160Y031103D01*
X015083Y030719D02*
X015160Y030643D01*
X015160Y030489D01*
X015083Y030413D01*
X014776Y030413D01*
X014700Y030489D01*
X014700Y030643D01*
X014776Y030719D01*
X013160Y030680D02*
X013160Y030373D01*
X012853Y030680D01*
X012776Y030680D01*
X012700Y030603D01*
X012700Y030450D01*
X012776Y030373D01*
X012776Y030219D02*
X012930Y030219D01*
X013007Y030143D01*
X013007Y029913D01*
X013007Y030066D02*
X013160Y030219D01*
X013160Y029913D02*
X012700Y029913D01*
X012700Y030143D01*
X012776Y030219D01*
X012930Y030833D02*
X012930Y031064D01*
X013007Y031140D01*
X013083Y031140D01*
X013160Y031064D01*
X013160Y030910D01*
X013083Y030833D01*
X012930Y030833D01*
X012776Y030987D01*
X012700Y031140D01*
X013069Y032544D02*
X013069Y033004D01*
X013299Y033004D01*
X013376Y032927D01*
X013376Y032774D01*
X013299Y032697D01*
X013069Y032697D01*
X013222Y032697D02*
X013376Y032544D01*
X013529Y032544D02*
X013836Y032851D01*
X013836Y032927D01*
X013759Y033004D01*
X013606Y033004D01*
X013529Y032927D01*
X013529Y032544D02*
X013836Y032544D01*
X013990Y032774D02*
X014297Y032774D01*
X014220Y033004D02*
X013990Y032774D01*
X014220Y032544D02*
X014220Y033004D01*
X012467Y035794D02*
X012160Y035794D01*
X012007Y035794D02*
X011853Y035947D01*
X011930Y035947D02*
X011700Y035947D01*
X011700Y035794D02*
X011700Y036254D01*
X011930Y036254D01*
X012007Y036177D01*
X012007Y036024D01*
X011930Y035947D01*
X012160Y036101D02*
X012314Y036254D01*
X012314Y035794D01*
X010851Y034004D02*
X010928Y033927D01*
X010621Y033620D01*
X010698Y033544D01*
X010851Y033544D01*
X010928Y033620D01*
X010928Y033927D01*
X010851Y034004D02*
X010698Y034004D01*
X010621Y033927D01*
X010621Y033620D01*
X010467Y033544D02*
X010160Y033544D01*
X010467Y033851D01*
X010467Y033927D01*
X010391Y034004D01*
X010237Y034004D01*
X010160Y033927D01*
X010007Y033927D02*
X009930Y034004D01*
X009700Y034004D01*
X009700Y033544D01*
X009700Y033697D02*
X009930Y033697D01*
X010007Y033774D01*
X010007Y033927D01*
X009853Y033697D02*
X010007Y033544D01*
X005928Y033544D02*
X005621Y033544D01*
X005774Y033544D02*
X005774Y034004D01*
X005621Y033851D01*
X005467Y033851D02*
X005160Y033544D01*
X005467Y033544D01*
X005467Y033851D02*
X005467Y033927D01*
X005391Y034004D01*
X005237Y034004D01*
X005160Y033927D01*
X005007Y033927D02*
X004930Y034004D01*
X004700Y034004D01*
X004700Y033544D01*
X004700Y033697D02*
X004930Y033697D01*
X005007Y033774D01*
X005007Y033927D01*
X004853Y033697D02*
X005007Y033544D01*
X002660Y031195D02*
X002200Y031195D01*
X002430Y030964D01*
X002430Y031271D01*
X002430Y030811D02*
X002430Y030504D01*
X002200Y030734D01*
X002660Y030734D01*
X002583Y030351D02*
X002660Y030274D01*
X002660Y030120D01*
X002583Y030044D01*
X002276Y030044D01*
X002200Y030120D01*
X002200Y030274D01*
X002276Y030351D01*
X004450Y029754D02*
X004450Y029294D01*
X004450Y029447D02*
X004680Y029447D01*
X004757Y029524D01*
X004757Y029677D01*
X004680Y029754D01*
X004450Y029754D01*
X004603Y029447D02*
X004757Y029294D01*
X004910Y029294D02*
X005217Y029601D01*
X005217Y029677D01*
X005141Y029754D01*
X004987Y029754D01*
X004910Y029677D01*
X004910Y029294D02*
X005217Y029294D01*
X005371Y029370D02*
X005448Y029294D01*
X005601Y029294D01*
X005678Y029370D01*
X005678Y029447D01*
X005601Y029524D01*
X005524Y029524D01*
X005601Y029524D02*
X005678Y029601D01*
X005678Y029677D01*
X005601Y029754D01*
X005448Y029754D01*
X005371Y029677D01*
X006950Y029640D02*
X006950Y029333D01*
X007026Y029180D02*
X006950Y029103D01*
X006950Y028950D01*
X007026Y028873D01*
X007026Y028719D02*
X007180Y028719D01*
X007257Y028643D01*
X007257Y028413D01*
X007257Y028566D02*
X007410Y028719D01*
X007410Y028873D02*
X007103Y029180D01*
X007026Y029180D01*
X007333Y029333D02*
X007026Y029640D01*
X006950Y029640D01*
X007333Y029333D02*
X007410Y029333D01*
X007410Y029180D02*
X007410Y028873D01*
X007026Y028719D02*
X006950Y028643D01*
X006950Y028413D01*
X007410Y028413D01*
X007950Y028489D02*
X008026Y028413D01*
X008333Y028413D01*
X008410Y028489D01*
X008410Y028643D01*
X008333Y028719D01*
X008180Y028873D02*
X008180Y029180D01*
X008333Y029333D02*
X008410Y029410D01*
X008410Y029564D01*
X008333Y029640D01*
X008257Y029640D01*
X008180Y029564D01*
X008180Y029487D01*
X008180Y029564D02*
X008103Y029640D01*
X008026Y029640D01*
X007950Y029564D01*
X007950Y029410D01*
X008026Y029333D01*
X007950Y029103D02*
X008180Y028873D01*
X008026Y028719D02*
X007950Y028643D01*
X007950Y028489D01*
X007950Y029103D02*
X008410Y029103D01*
X009450Y029294D02*
X009450Y029754D01*
X009680Y029754D01*
X009757Y029677D01*
X009757Y029524D01*
X009680Y029447D01*
X009450Y029447D01*
X009603Y029447D02*
X009757Y029294D01*
X009910Y029294D02*
X010217Y029601D01*
X010217Y029677D01*
X010141Y029754D01*
X009987Y029754D01*
X009910Y029677D01*
X009910Y029294D02*
X010217Y029294D01*
X010371Y029370D02*
X010448Y029294D01*
X010601Y029294D01*
X010678Y029370D01*
X010678Y029524D01*
X010601Y029601D01*
X010524Y029601D01*
X010371Y029524D01*
X010371Y029754D01*
X010678Y029754D01*
X010797Y027254D02*
X010490Y027254D01*
X010490Y027024D01*
X010643Y027101D01*
X010720Y027101D01*
X010797Y027024D01*
X010797Y026870D01*
X010720Y026794D01*
X010566Y026794D01*
X010490Y026870D01*
X010336Y027024D02*
X010029Y027024D01*
X010259Y027254D01*
X010259Y026794D01*
X009876Y026870D02*
X009799Y026794D01*
X009646Y026794D01*
X009569Y026870D01*
X009569Y027177D01*
X009646Y027254D01*
X009799Y027254D01*
X009876Y027177D01*
X008467Y026754D02*
X008314Y026677D01*
X008160Y026524D01*
X008391Y026524D01*
X008467Y026447D01*
X008467Y026370D01*
X008391Y026294D01*
X008237Y026294D01*
X008160Y026370D01*
X008160Y026524D01*
X008007Y026524D02*
X008007Y026677D01*
X007930Y026754D01*
X007700Y026754D01*
X007700Y026294D01*
X007700Y026447D02*
X007930Y026447D01*
X008007Y026524D01*
X007853Y026447D02*
X008007Y026294D01*
X005797Y026870D02*
X005797Y026947D01*
X005720Y027024D01*
X005490Y027024D01*
X005490Y026870D01*
X005566Y026794D01*
X005720Y026794D01*
X005797Y026870D01*
X005643Y027177D02*
X005490Y027024D01*
X005336Y027024D02*
X005029Y027024D01*
X005259Y027254D01*
X005259Y026794D01*
X004876Y026870D02*
X004799Y026794D01*
X004646Y026794D01*
X004569Y026870D01*
X004569Y027177D01*
X004646Y027254D01*
X004799Y027254D01*
X004876Y027177D01*
X005643Y027177D02*
X005797Y027254D01*
X005160Y024311D02*
X005160Y024004D01*
X005160Y023851D02*
X005007Y023697D01*
X005160Y023774D02*
X005160Y023620D01*
X005083Y023544D01*
X004776Y023544D01*
X004700Y023620D01*
X004700Y023774D01*
X004776Y023851D01*
X005083Y023851D01*
X005160Y023774D01*
X005160Y024158D02*
X004700Y024158D01*
X004853Y024004D01*
X006950Y022695D02*
X007026Y022771D01*
X007103Y022771D01*
X007180Y022695D01*
X007257Y022771D01*
X007333Y022771D01*
X007410Y022695D01*
X007410Y022541D01*
X007333Y022464D01*
X007410Y022311D02*
X007410Y022004D01*
X007410Y022158D02*
X006950Y022158D01*
X007103Y022004D01*
X007026Y021851D02*
X006950Y021774D01*
X006950Y021620D01*
X007026Y021544D01*
X007333Y021544D01*
X007410Y021620D01*
X007410Y021774D01*
X007333Y021851D01*
X007026Y022464D02*
X006950Y022541D01*
X006950Y022695D01*
X007180Y022695D02*
X007180Y022618D01*
X007180Y021061D02*
X007180Y020754D01*
X006950Y020984D01*
X007410Y020984D01*
X007410Y020601D02*
X007257Y020447D01*
X007257Y020524D02*
X007257Y020294D01*
X007410Y020294D02*
X006950Y020294D01*
X006950Y020524D01*
X007026Y020601D01*
X007180Y020601D01*
X007257Y020524D01*
X007333Y019811D02*
X007410Y019734D01*
X007410Y019581D01*
X007333Y019504D01*
X007180Y019504D02*
X007103Y019658D01*
X007103Y019734D01*
X007180Y019811D01*
X007333Y019811D01*
X007180Y019504D02*
X006950Y019504D01*
X006950Y019811D01*
X007026Y019351D02*
X007180Y019351D01*
X007257Y019274D01*
X007257Y019044D01*
X007410Y019044D02*
X006950Y019044D01*
X006950Y019274D01*
X007026Y019351D01*
X007257Y019197D02*
X007410Y019351D01*
X007160Y017811D02*
X007160Y017504D01*
X007160Y017658D02*
X006700Y017658D01*
X006853Y017504D01*
X006776Y017351D02*
X006700Y017274D01*
X006700Y017044D01*
X007160Y017044D01*
X007160Y017274D01*
X007083Y017351D01*
X006776Y017351D01*
X010723Y019647D02*
X010800Y019570D01*
X010877Y019570D01*
X010954Y019647D01*
X010954Y019800D01*
X011030Y019877D01*
X011107Y019877D01*
X011184Y019800D01*
X011184Y019647D01*
X011107Y019570D01*
X010723Y019647D02*
X010723Y019800D01*
X010800Y019877D01*
X010877Y020030D02*
X010723Y020184D01*
X011184Y020184D01*
X011184Y020337D02*
X011184Y020030D01*
X012700Y019984D02*
X012776Y020061D01*
X012853Y020061D01*
X012930Y019984D01*
X013007Y020061D01*
X013083Y020061D01*
X013160Y019984D01*
X013160Y019831D01*
X013083Y019754D01*
X013160Y019601D02*
X013007Y019447D01*
X013007Y019524D02*
X013007Y019294D01*
X013160Y019294D02*
X012700Y019294D01*
X012700Y019524D01*
X012776Y019601D01*
X012930Y019601D01*
X013007Y019524D01*
X012776Y019754D02*
X012700Y019831D01*
X012700Y019984D01*
X012930Y019984D02*
X012930Y019908D01*
X012776Y020214D02*
X012700Y020291D01*
X012700Y020445D01*
X012776Y020521D01*
X012853Y020521D01*
X013160Y020214D01*
X013160Y020521D01*
X013095Y021144D02*
X013335Y021504D01*
X013463Y021384D02*
X013583Y021504D01*
X013583Y021144D01*
X013463Y021144D02*
X013704Y021144D01*
X013832Y021204D02*
X013832Y021264D01*
X013892Y021324D01*
X014012Y021324D01*
X014072Y021264D01*
X014072Y021204D01*
X014012Y021144D01*
X013892Y021144D01*
X013832Y021204D01*
X013892Y021324D02*
X013832Y021384D01*
X013832Y021444D01*
X013892Y021504D01*
X014012Y021504D01*
X014072Y021444D01*
X014072Y021384D01*
X014012Y021324D01*
X013335Y021144D02*
X013095Y021504D01*
X015950Y021004D02*
X015950Y020544D01*
X015950Y020697D02*
X016180Y020697D01*
X016257Y020774D01*
X016257Y020927D01*
X016180Y021004D01*
X015950Y021004D01*
X016103Y020697D02*
X016257Y020544D01*
X016410Y020544D02*
X016717Y020851D01*
X016717Y020927D01*
X016641Y021004D01*
X016487Y021004D01*
X016410Y020927D01*
X016410Y020544D02*
X016717Y020544D01*
X016871Y020620D02*
X016948Y020544D01*
X017101Y020544D01*
X017178Y020620D01*
X017178Y020927D01*
X017101Y021004D01*
X016948Y021004D01*
X016871Y020927D01*
X016871Y020851D01*
X016948Y020774D01*
X017178Y020774D01*
X017101Y020004D02*
X017178Y019927D01*
X017178Y019851D01*
X017101Y019774D01*
X016948Y019774D01*
X016871Y019851D01*
X016871Y019927D01*
X016948Y020004D01*
X017101Y020004D01*
X017101Y019774D02*
X017178Y019697D01*
X017178Y019620D01*
X017101Y019544D01*
X016948Y019544D01*
X016871Y019620D01*
X016871Y019697D01*
X016948Y019774D01*
X016717Y019774D02*
X016410Y019774D01*
X016641Y020004D01*
X016641Y019544D01*
X016257Y019620D02*
X016180Y019544D01*
X016027Y019544D01*
X015950Y019620D01*
X015950Y019927D01*
X016027Y020004D01*
X016180Y020004D01*
X016257Y019927D01*
X017200Y019254D02*
X017430Y019254D01*
X017507Y019177D01*
X017507Y019024D01*
X017430Y018947D01*
X017200Y018947D01*
X017200Y018794D02*
X017200Y019254D01*
X017660Y019254D02*
X017967Y019254D01*
X017814Y019254D02*
X017814Y018794D01*
X018121Y018870D02*
X018198Y018794D01*
X018351Y018794D01*
X018428Y018870D01*
X018581Y018794D02*
X018888Y018794D01*
X018735Y018794D02*
X018735Y019254D01*
X018581Y019101D01*
X018428Y019177D02*
X018351Y019254D01*
X018198Y019254D01*
X018121Y019177D01*
X018121Y018870D01*
X019042Y018794D02*
X019348Y019101D01*
X019348Y019177D01*
X019272Y019254D01*
X019118Y019254D01*
X019042Y019177D01*
X019042Y018794D02*
X019348Y018794D01*
X019277Y018504D02*
X019200Y018427D01*
X019200Y018120D01*
X019277Y018044D01*
X019430Y018044D01*
X019507Y018120D01*
X019660Y018120D02*
X019737Y018044D01*
X019891Y018044D01*
X019967Y018120D01*
X019967Y018197D01*
X019891Y018274D01*
X019814Y018274D01*
X019891Y018274D02*
X019967Y018351D01*
X019967Y018427D01*
X019891Y018504D01*
X019737Y018504D01*
X019660Y018427D01*
X019507Y018427D02*
X019430Y018504D01*
X019277Y018504D01*
X020121Y018274D02*
X020428Y018274D01*
X020351Y018044D02*
X020351Y018504D01*
X020121Y018274D01*
X018660Y016021D02*
X018660Y015714D01*
X018353Y016021D01*
X018276Y016021D01*
X018200Y015945D01*
X018200Y015791D01*
X018276Y015714D01*
X018276Y015561D02*
X018353Y015561D01*
X018430Y015484D01*
X018507Y015561D01*
X018583Y015561D01*
X018660Y015484D01*
X018660Y015331D01*
X018583Y015254D01*
X018583Y015101D02*
X018660Y015024D01*
X018660Y014870D01*
X018583Y014794D01*
X018276Y014794D01*
X018200Y014870D01*
X018200Y015024D01*
X018276Y015101D01*
X018276Y015254D02*
X018200Y015331D01*
X018200Y015484D01*
X018276Y015561D01*
X018430Y015484D02*
X018430Y015408D01*
X017101Y018294D02*
X016948Y018294D01*
X016871Y018370D01*
X017178Y018677D01*
X017178Y018370D01*
X017101Y018294D01*
X016871Y018370D02*
X016871Y018677D01*
X016948Y018754D01*
X017101Y018754D01*
X017178Y018677D01*
X016717Y018677D02*
X016717Y018601D01*
X016641Y018524D01*
X016717Y018447D01*
X016717Y018370D01*
X016641Y018294D01*
X016487Y018294D01*
X016410Y018370D01*
X016257Y018294D02*
X016103Y018447D01*
X016180Y018447D02*
X015950Y018447D01*
X015950Y018294D02*
X015950Y018754D01*
X016180Y018754D01*
X016257Y018677D01*
X016257Y018524D01*
X016180Y018447D01*
X016410Y018677D02*
X016487Y018754D01*
X016641Y018754D01*
X016717Y018677D01*
X016641Y018524D02*
X016564Y018524D01*
X016950Y022044D02*
X016950Y022504D01*
X017180Y022504D01*
X017257Y022427D01*
X017257Y022274D01*
X017180Y022197D01*
X016950Y022197D01*
X017410Y022504D02*
X017717Y022504D01*
X017564Y022504D02*
X017564Y022044D01*
X017871Y022120D02*
X017948Y022044D01*
X018101Y022044D01*
X018178Y022120D01*
X018331Y022120D02*
X018408Y022044D01*
X018561Y022044D01*
X018638Y022120D01*
X018638Y022197D01*
X018561Y022274D01*
X018408Y022274D01*
X018331Y022351D01*
X018331Y022427D01*
X018408Y022504D01*
X018561Y022504D01*
X018638Y022427D01*
X018638Y022351D01*
X018561Y022274D01*
X018408Y022274D02*
X018331Y022197D01*
X018331Y022120D01*
X018178Y022427D02*
X018101Y022504D01*
X017948Y022504D01*
X017871Y022427D01*
X017871Y022120D01*
X018950Y022044D02*
X018950Y022504D01*
X019180Y022504D01*
X019257Y022427D01*
X019257Y022274D01*
X019180Y022197D01*
X018950Y022197D01*
X019410Y022504D02*
X019717Y022504D01*
X019564Y022504D02*
X019564Y022044D01*
X019871Y022120D02*
X019948Y022044D01*
X020101Y022044D01*
X020178Y022120D01*
X020331Y022120D02*
X020331Y022044D01*
X020331Y022120D02*
X020638Y022427D01*
X020638Y022504D01*
X020331Y022504D01*
X020178Y022427D02*
X020101Y022504D01*
X019948Y022504D01*
X019871Y022427D01*
X019871Y022120D01*
X014012Y024894D02*
X014012Y025254D01*
X013832Y025074D01*
X014072Y025074D01*
X013704Y024894D02*
X013463Y024894D01*
X013583Y024894D02*
X013583Y025254D01*
X013463Y025134D01*
X013335Y025254D02*
X013095Y024894D01*
X013335Y024894D02*
X013095Y025254D01*
X027700Y025004D02*
X027700Y024544D01*
X027700Y024697D02*
X027930Y024697D01*
X028007Y024774D01*
X028007Y024927D01*
X027930Y025004D01*
X027700Y025004D01*
X027853Y024697D02*
X028007Y024544D01*
X028160Y024544D02*
X028467Y024544D01*
X028314Y024544D02*
X028314Y025004D01*
X028160Y024851D01*
X028621Y024927D02*
X028698Y025004D01*
X028851Y025004D01*
X028928Y024927D01*
X028621Y024620D01*
X028698Y024544D01*
X028851Y024544D01*
X028928Y024620D01*
X028928Y024927D01*
X028621Y024927D02*
X028621Y024620D01*
X030900Y024824D02*
X031140Y024824D01*
X031020Y024824D02*
X031020Y024464D01*
X031268Y024524D02*
X031268Y024584D01*
X031328Y024644D01*
X031448Y024644D01*
X031509Y024584D01*
X031509Y024524D01*
X031448Y024464D01*
X031328Y024464D01*
X031268Y024524D01*
X031328Y024644D02*
X031268Y024704D01*
X031268Y024764D01*
X031328Y024824D01*
X031448Y024824D01*
X031509Y024764D01*
X031509Y024704D01*
X031448Y024644D01*
X033358Y019004D02*
X033665Y019004D01*
X033512Y019004D02*
X033512Y018544D01*
X033819Y018620D02*
X033896Y018544D01*
X034049Y018544D01*
X034126Y018620D01*
X034279Y018544D02*
X034586Y018544D01*
X034433Y018544D02*
X034433Y019004D01*
X034279Y018851D01*
X034126Y018927D02*
X034049Y019004D01*
X033896Y019004D01*
X033819Y018927D01*
X033819Y018620D01*
X034740Y018620D02*
X035047Y018927D01*
X035047Y018620D01*
X034970Y018544D01*
X034816Y018544D01*
X034740Y018620D01*
X034740Y018927D01*
X034816Y019004D01*
X034970Y019004D01*
X035047Y018927D01*
X037950Y018564D02*
X037950Y018410D01*
X038026Y018333D01*
X038333Y018333D01*
X038026Y018640D01*
X038333Y018640D01*
X038410Y018564D01*
X038410Y018410D01*
X038333Y018333D01*
X038410Y018180D02*
X038410Y017873D01*
X038103Y018180D01*
X038026Y018180D01*
X037950Y018103D01*
X037950Y017950D01*
X038026Y017873D01*
X038026Y017719D02*
X037950Y017643D01*
X037950Y017489D01*
X038026Y017413D01*
X038333Y017413D01*
X038410Y017489D01*
X038410Y017643D01*
X038333Y017719D01*
X037950Y018564D02*
X038026Y018640D01*
X039700Y017195D02*
X039776Y017271D01*
X040083Y017271D01*
X040160Y017195D01*
X040160Y017041D01*
X040083Y016964D01*
X040160Y016811D02*
X040160Y016504D01*
X040160Y016658D02*
X039700Y016658D01*
X039853Y016504D01*
X039776Y016351D02*
X039700Y016274D01*
X039700Y016120D01*
X039776Y016044D01*
X040083Y016044D01*
X040160Y016120D01*
X040160Y016274D01*
X040083Y016351D01*
X039853Y016964D02*
X039930Y017041D01*
X039930Y017271D01*
X039700Y017195D02*
X039700Y017041D01*
X039776Y016964D01*
X039853Y016964D01*
X040450Y017794D02*
X040450Y017947D01*
X040450Y017870D02*
X040910Y017870D01*
X040910Y017794D02*
X040910Y017947D01*
X040833Y018101D02*
X040910Y018177D01*
X040910Y018331D01*
X040833Y018408D01*
X040833Y018561D02*
X040910Y018638D01*
X040910Y018791D01*
X040833Y018868D01*
X040526Y018868D01*
X040450Y018791D01*
X040450Y018638D01*
X040526Y018561D01*
X040603Y018561D01*
X040680Y018638D01*
X040680Y018868D01*
X040700Y019044D02*
X040700Y019197D01*
X040700Y019120D02*
X041160Y019120D01*
X041160Y019044D02*
X041160Y019197D01*
X041083Y019351D02*
X040776Y019351D01*
X040700Y019427D01*
X040700Y019581D01*
X040776Y019658D01*
X040853Y019811D02*
X040700Y019964D01*
X041160Y019964D01*
X041160Y019811D02*
X041160Y020118D01*
X041083Y020271D02*
X040776Y020578D01*
X041083Y020578D01*
X041160Y020502D01*
X041160Y020348D01*
X041083Y020271D01*
X040776Y020271D01*
X040700Y020348D01*
X040700Y020502D01*
X040776Y020578D01*
X041083Y019658D02*
X041160Y019581D01*
X041160Y019427D01*
X041083Y019351D01*
X041450Y019254D02*
X041680Y019254D01*
X041757Y019177D01*
X041757Y019024D01*
X041680Y018947D01*
X041450Y018947D01*
X041450Y018794D02*
X041450Y019254D01*
X041910Y019254D02*
X042217Y019254D01*
X042064Y019254D02*
X042064Y018794D01*
X042371Y018870D02*
X042448Y018794D01*
X042601Y018794D01*
X042678Y018870D01*
X042831Y018870D02*
X042908Y018794D01*
X043061Y018794D01*
X043138Y018870D01*
X043138Y019177D01*
X043061Y019254D01*
X042908Y019254D01*
X042831Y019177D01*
X042831Y019101D01*
X042908Y019024D01*
X043138Y019024D01*
X042678Y019177D02*
X042601Y019254D01*
X042448Y019254D01*
X042371Y019177D01*
X042371Y018870D01*
X040833Y018101D02*
X040526Y018101D01*
X040450Y018177D01*
X040450Y018331D01*
X040526Y018408D01*
X038700Y016245D02*
X038640Y016245D01*
X038400Y016486D01*
X038340Y016486D01*
X038340Y016245D01*
X038400Y016117D02*
X038340Y016057D01*
X038340Y015937D01*
X038400Y015877D01*
X038640Y015877D01*
X038700Y015937D01*
X038700Y016057D01*
X038640Y016117D01*
X038700Y015752D02*
X038700Y015632D01*
X038700Y015692D02*
X038340Y015692D01*
X038340Y015632D02*
X038340Y015752D01*
X038240Y013254D02*
X038547Y013254D01*
X038547Y013177D01*
X038240Y012870D01*
X038240Y012794D01*
X038086Y012794D02*
X037779Y012794D01*
X037933Y012794D02*
X037933Y013254D01*
X037779Y013101D01*
X037626Y013177D02*
X037549Y013254D01*
X037396Y013254D01*
X037319Y013177D01*
X037319Y012870D01*
X037396Y012794D01*
X037549Y012794D01*
X037626Y012870D01*
X036547Y012870D02*
X036547Y012947D01*
X036470Y013024D01*
X036240Y013024D01*
X036240Y012870D01*
X036316Y012794D01*
X036470Y012794D01*
X036547Y012870D01*
X036393Y013177D02*
X036240Y013024D01*
X036393Y013177D02*
X036547Y013254D01*
X035933Y013254D02*
X035933Y012794D01*
X036086Y012794D02*
X035779Y012794D01*
X035626Y012870D02*
X035549Y012794D01*
X035396Y012794D01*
X035319Y012870D01*
X035319Y013177D01*
X035396Y013254D01*
X035549Y013254D01*
X035626Y013177D01*
X035779Y013101D02*
X035933Y013254D01*
X034660Y014370D02*
X034660Y014524D01*
X034583Y014601D01*
X034660Y014754D02*
X034660Y015061D01*
X034660Y014908D02*
X034200Y014908D01*
X034353Y014754D01*
X034276Y014601D02*
X034200Y014524D01*
X034200Y014370D01*
X034276Y014294D01*
X034583Y014294D01*
X034660Y014370D01*
X034583Y015214D02*
X034507Y015214D01*
X034430Y015291D01*
X034430Y015445D01*
X034507Y015521D01*
X034583Y015521D01*
X034660Y015445D01*
X034660Y015291D01*
X034583Y015214D01*
X034430Y015291D02*
X034353Y015214D01*
X034276Y015214D01*
X034200Y015291D01*
X034200Y015445D01*
X034276Y015521D01*
X034353Y015521D01*
X034430Y015445D01*
X036527Y011754D02*
X036450Y011677D01*
X036450Y011370D01*
X036527Y011294D01*
X036680Y011294D01*
X036757Y011370D01*
X036910Y011294D02*
X037217Y011601D01*
X037217Y011677D01*
X037141Y011754D01*
X036987Y011754D01*
X036910Y011677D01*
X036757Y011677D02*
X036680Y011754D01*
X036527Y011754D01*
X036910Y011294D02*
X037217Y011294D01*
X037371Y011294D02*
X037678Y011601D01*
X037678Y011677D01*
X037601Y011754D01*
X037448Y011754D01*
X037371Y011677D01*
X037371Y011294D02*
X037678Y011294D01*
X035948Y010754D02*
X035948Y010294D01*
X036024Y010524D02*
X035717Y010524D01*
X035948Y010754D01*
X035564Y010677D02*
X035487Y010754D01*
X035334Y010754D01*
X035257Y010677D01*
X035257Y010370D01*
X035334Y010294D01*
X035487Y010294D01*
X035564Y010370D01*
X035103Y010294D02*
X034950Y010294D01*
X035027Y010294D02*
X035027Y010754D01*
X035103Y010754D02*
X034950Y010754D01*
X034660Y010680D02*
X034660Y010373D01*
X034660Y010526D02*
X034200Y010526D01*
X034353Y010373D01*
X034276Y010219D02*
X034430Y010219D01*
X034507Y010143D01*
X034507Y009913D01*
X034507Y010066D02*
X034660Y010219D01*
X034660Y009913D02*
X034200Y009913D01*
X034200Y010143D01*
X034276Y010219D01*
X034276Y010833D02*
X034200Y010910D01*
X034200Y011064D01*
X034276Y011140D01*
X034353Y011140D01*
X034660Y010833D01*
X034660Y011140D01*
X033178Y009677D02*
X032871Y009370D01*
X032948Y009294D01*
X033101Y009294D01*
X033178Y009370D01*
X033178Y009677D01*
X033101Y009754D01*
X032948Y009754D01*
X032871Y009677D01*
X032871Y009370D01*
X033024Y009004D02*
X033024Y008544D01*
X032871Y008544D02*
X033178Y008544D01*
X032871Y008851D02*
X033024Y009004D01*
X034200Y009064D02*
X034200Y008910D01*
X034276Y008833D01*
X034430Y008987D02*
X034430Y009064D01*
X034507Y009140D01*
X034583Y009140D01*
X034660Y009064D01*
X034660Y008910D01*
X034583Y008833D01*
X034660Y008680D02*
X034660Y008373D01*
X034660Y008526D02*
X034200Y008526D01*
X034353Y008373D01*
X034276Y008219D02*
X034430Y008219D01*
X034507Y008143D01*
X034507Y007913D01*
X034507Y008066D02*
X034660Y008219D01*
X034660Y007913D02*
X034200Y007913D01*
X034200Y008143D01*
X034276Y008219D01*
X034200Y009064D02*
X034276Y009140D01*
X034353Y009140D01*
X034430Y009064D01*
X040450Y012370D02*
X040527Y012294D01*
X040680Y012294D01*
X040757Y012370D01*
X040910Y012294D02*
X041217Y012294D01*
X041064Y012294D02*
X041064Y012754D01*
X040910Y012601D01*
X040757Y012677D02*
X040680Y012754D01*
X040527Y012754D01*
X040450Y012677D01*
X040450Y012370D01*
X041371Y012524D02*
X041678Y012524D01*
X041601Y012294D02*
X041601Y012754D01*
X041371Y012524D01*
X044777Y018544D02*
X044930Y018544D01*
X045007Y018620D01*
X045160Y018620D02*
X045237Y018544D01*
X045391Y018544D01*
X045467Y018620D01*
X045467Y018697D01*
X045391Y018774D01*
X045160Y018774D01*
X045160Y018620D01*
X045160Y018774D02*
X045314Y018927D01*
X045467Y019004D01*
X045007Y018927D02*
X044930Y019004D01*
X044777Y019004D01*
X044700Y018927D01*
X044700Y018620D01*
X044777Y018544D01*
X044391Y024544D02*
X044237Y024544D01*
X044160Y024620D01*
X044160Y024697D01*
X044237Y024774D01*
X044391Y024774D01*
X044467Y024697D01*
X044467Y024620D01*
X044391Y024544D01*
X044391Y024774D02*
X044467Y024851D01*
X044467Y024927D01*
X044391Y025004D01*
X044237Y025004D01*
X044160Y024927D01*
X044160Y024851D01*
X044237Y024774D01*
X044007Y024774D02*
X043930Y024697D01*
X043700Y024697D01*
X043700Y024544D02*
X043700Y025004D01*
X043930Y025004D01*
X044007Y024927D01*
X044007Y024774D01*
X043853Y024697D02*
X044007Y024544D01*
X046900Y024824D02*
X047140Y024824D01*
X047020Y024824D02*
X047020Y024464D01*
X047268Y024524D02*
X047328Y024464D01*
X047448Y024464D01*
X047509Y024524D01*
X047509Y024584D01*
X047448Y024644D01*
X047268Y024644D01*
X047268Y024524D01*
X047268Y024644D02*
X047388Y024764D01*
X047509Y024824D01*
X045061Y003754D02*
X044908Y003754D01*
X044831Y003677D01*
X044678Y003677D02*
X044601Y003754D01*
X044371Y003754D01*
X044371Y003294D01*
X044601Y003294D01*
X044678Y003370D01*
X044678Y003677D01*
X045061Y003754D02*
X045138Y003677D01*
X045138Y003601D01*
X044831Y003294D01*
X045138Y003294D01*
X044217Y003294D02*
X043910Y003294D01*
X043910Y003754D01*
X044217Y003754D01*
X044064Y003524D02*
X043910Y003524D01*
X043757Y003294D02*
X043450Y003294D01*
X043450Y003754D01*
X042717Y003754D02*
X042717Y003677D01*
X042410Y003370D01*
X042410Y003294D01*
X042257Y003294D02*
X042103Y003447D01*
X042180Y003447D02*
X041950Y003447D01*
X041950Y003294D02*
X041950Y003754D01*
X042180Y003754D01*
X042257Y003677D01*
X042257Y003524D01*
X042180Y003447D01*
X042410Y003754D02*
X042717Y003754D01*
X040160Y002890D02*
X040160Y002583D01*
X039853Y002890D01*
X039776Y002890D01*
X039700Y002814D01*
X039700Y002660D01*
X039776Y002583D01*
X039776Y002430D02*
X039930Y002430D01*
X040007Y002353D01*
X040007Y002123D01*
X040160Y002123D02*
X039700Y002123D01*
X039700Y002353D01*
X039776Y002430D01*
X040007Y002276D02*
X040160Y002430D01*
X015806Y001613D02*
X015742Y001635D01*
X015679Y001662D01*
X015617Y001692D01*
X015558Y001725D01*
X015500Y001761D01*
X015444Y001801D01*
X015391Y001844D01*
X015340Y001889D01*
X015292Y001937D01*
X015247Y001988D01*
X015204Y002042D01*
X015165Y002098D01*
X015128Y002155D01*
X015095Y002215D01*
X015066Y002277D01*
X015040Y002340D01*
X015017Y002404D01*
X014998Y002470D01*
X014983Y002537D01*
X014972Y002604D01*
X014964Y002672D01*
X014960Y002740D01*
X014960Y002808D01*
X014964Y002876D01*
X014972Y002944D01*
X014983Y003011D01*
X014998Y003078D01*
X015017Y003144D01*
X015040Y003208D01*
X015066Y003271D01*
X015095Y003333D01*
X015128Y003393D01*
X015165Y003450D01*
X015204Y003506D01*
X015247Y003560D01*
X015292Y003611D01*
X015340Y003659D01*
X015391Y003704D01*
X015444Y003747D01*
X015500Y003787D01*
X015558Y003823D01*
X015617Y003856D01*
X015679Y003886D01*
X015742Y003913D01*
X015806Y003935D01*
X016554Y003935D02*
X016618Y003913D01*
X016681Y003886D01*
X016743Y003856D01*
X016802Y003823D01*
X016860Y003787D01*
X016916Y003747D01*
X016969Y003704D01*
X017020Y003659D01*
X017068Y003611D01*
X017113Y003560D01*
X017156Y003506D01*
X017195Y003450D01*
X017232Y003393D01*
X017265Y003333D01*
X017294Y003271D01*
X017320Y003208D01*
X017343Y003144D01*
X017362Y003078D01*
X017377Y003011D01*
X017388Y002944D01*
X017396Y002876D01*
X017400Y002808D01*
X017400Y002740D01*
X017396Y002672D01*
X017388Y002604D01*
X017377Y002537D01*
X017362Y002470D01*
X017343Y002404D01*
X017320Y002340D01*
X017294Y002277D01*
X017265Y002215D01*
X017232Y002155D01*
X017195Y002098D01*
X017156Y002042D01*
X017113Y001988D01*
X017068Y001937D01*
X017020Y001889D01*
X016969Y001844D01*
X016916Y001801D01*
X016860Y001761D01*
X016802Y001725D01*
X016743Y001692D01*
X016681Y001662D01*
X016618Y001635D01*
X016554Y001613D01*
X013160Y004044D02*
X012800Y004284D01*
X012860Y004412D02*
X012920Y004412D01*
X012980Y004472D01*
X012980Y004592D01*
X013040Y004652D01*
X013100Y004652D01*
X013160Y004592D01*
X013160Y004472D01*
X013100Y004412D01*
X013040Y004412D01*
X012980Y004472D01*
X012980Y004592D02*
X012920Y004652D01*
X012860Y004652D01*
X012800Y004592D01*
X012800Y004472D01*
X012860Y004412D01*
X013160Y004284D02*
X012800Y004044D01*
X010547Y005794D02*
X010240Y005794D01*
X010393Y005794D02*
X010393Y006254D01*
X010240Y006101D01*
X010086Y006101D02*
X010086Y006177D01*
X010009Y006254D01*
X009856Y006254D01*
X009779Y006177D01*
X009626Y006177D02*
X009549Y006254D01*
X009396Y006254D01*
X009319Y006177D01*
X009319Y005870D01*
X009396Y005794D01*
X009549Y005794D01*
X009626Y005870D01*
X009779Y005794D02*
X010086Y006101D01*
X010086Y005794D02*
X009779Y005794D01*
X008410Y006489D02*
X008410Y006643D01*
X008333Y006719D01*
X008410Y006873D02*
X008410Y007180D01*
X008410Y007026D02*
X007950Y007026D01*
X008103Y006873D01*
X008026Y006719D02*
X007950Y006643D01*
X007950Y006489D01*
X008026Y006413D01*
X008333Y006413D01*
X008410Y006489D01*
X008333Y007333D02*
X008410Y007410D01*
X008410Y007564D01*
X008333Y007640D01*
X008180Y007640D01*
X008103Y007564D01*
X008103Y007487D01*
X008180Y007333D01*
X007950Y007333D01*
X007950Y007640D01*
X008700Y009544D02*
X008700Y009697D01*
X008700Y009620D02*
X009160Y009620D01*
X009160Y009544D02*
X009160Y009697D01*
X009083Y009851D02*
X009160Y009927D01*
X009160Y010081D01*
X009083Y010158D01*
X009160Y010311D02*
X009160Y010618D01*
X009160Y010464D02*
X008700Y010464D01*
X008853Y010311D01*
X008776Y010158D02*
X008700Y010081D01*
X008700Y009927D01*
X008776Y009851D01*
X009083Y009851D01*
X009083Y010771D02*
X009160Y010848D01*
X009160Y011002D01*
X009083Y011078D01*
X009007Y011078D01*
X008930Y011002D01*
X008930Y010771D01*
X009083Y010771D01*
X008930Y010771D02*
X008776Y010925D01*
X008700Y011078D01*
X009700Y011294D02*
X010007Y011294D01*
X010160Y011524D02*
X010467Y011524D01*
X010391Y011754D02*
X010160Y011524D01*
X010391Y011294D02*
X010391Y011754D01*
X009700Y011754D02*
X009700Y011294D01*
X012276Y007890D02*
X012353Y007890D01*
X012430Y007814D01*
X012430Y007660D01*
X012353Y007583D01*
X012276Y007583D01*
X012200Y007660D01*
X012200Y007814D01*
X012276Y007890D01*
X012430Y007814D02*
X012507Y007890D01*
X012583Y007890D01*
X012660Y007814D01*
X012660Y007660D01*
X012583Y007583D01*
X012507Y007583D01*
X012430Y007660D01*
X012353Y007430D02*
X012276Y007430D01*
X012200Y007353D01*
X012200Y007200D01*
X012276Y007123D01*
X012276Y006969D02*
X012200Y006893D01*
X012200Y006739D01*
X012276Y006663D01*
X012583Y006663D01*
X012660Y006739D01*
X012660Y006893D01*
X012583Y006969D01*
X012660Y007123D02*
X012353Y007430D01*
X012660Y007430D02*
X012660Y007123D01*
X013200Y007200D02*
X013200Y007353D01*
X013276Y007430D01*
X013353Y007430D01*
X013430Y007353D01*
X013507Y007430D01*
X013583Y007430D01*
X013660Y007353D01*
X013660Y007200D01*
X013583Y007123D01*
X013583Y006969D02*
X013660Y006893D01*
X013660Y006739D01*
X013583Y006663D01*
X013276Y006663D01*
X013200Y006739D01*
X013200Y006893D01*
X013276Y006969D01*
X013276Y007123D02*
X013200Y007200D01*
X013430Y007276D02*
X013430Y007353D01*
X013583Y007583D02*
X013660Y007583D01*
X013583Y007583D02*
X013276Y007890D01*
X013200Y007890D01*
X013200Y007583D01*
X007160Y004592D02*
X007160Y004472D01*
X007100Y004412D01*
X006980Y004472D02*
X006980Y004652D01*
X007100Y004652D02*
X006860Y004652D01*
X006800Y004592D01*
X006800Y004472D01*
X006860Y004412D01*
X006920Y004412D01*
X006980Y004472D01*
X007160Y004592D02*
X007100Y004652D01*
X007160Y004284D02*
X006800Y004044D01*
X006800Y004284D02*
X007160Y004044D01*
X003453Y005827D02*
X003146Y005520D01*
X003146Y005443D01*
X002993Y005443D02*
X002686Y005443D01*
X002839Y005443D02*
X002839Y005904D01*
X002686Y005750D01*
X002533Y005904D02*
X002226Y005443D01*
X002533Y005443D02*
X002226Y005904D01*
X003146Y005904D02*
X003453Y005904D01*
X003453Y005827D01*
X009474Y038384D02*
X009781Y038845D01*
X009934Y038691D02*
X010087Y038845D01*
X010087Y038384D01*
X009934Y038384D02*
X010241Y038384D01*
X010394Y038461D02*
X010471Y038384D01*
X010625Y038384D01*
X010701Y038461D01*
X010701Y038538D01*
X010625Y038614D01*
X010548Y038614D01*
X010625Y038614D02*
X010701Y038691D01*
X010701Y038768D01*
X010625Y038845D01*
X010471Y038845D01*
X010394Y038768D01*
X009781Y038384D02*
X009474Y038845D01*
X011450Y038754D02*
X011450Y038294D01*
X011450Y038447D02*
X011680Y038447D01*
X011757Y038524D01*
X011757Y038677D01*
X011680Y038754D01*
X011450Y038754D01*
X011603Y038447D02*
X011757Y038294D01*
X011910Y038370D02*
X011987Y038294D01*
X012141Y038294D01*
X012217Y038370D01*
X012217Y038447D01*
X012141Y038524D01*
X012064Y038524D01*
X012141Y038524D02*
X012217Y038601D01*
X012217Y038677D01*
X012141Y038754D01*
X011987Y038754D01*
X011910Y038677D01*
X012371Y038601D02*
X012524Y038754D01*
X012524Y038294D01*
X012371Y038294D02*
X012678Y038294D01*
X013474Y038384D02*
X013781Y038845D01*
X013934Y038691D02*
X014087Y038845D01*
X014087Y038384D01*
X013934Y038384D02*
X014241Y038384D01*
X014394Y038384D02*
X014701Y038384D01*
X014548Y038384D02*
X014548Y038845D01*
X014394Y038691D01*
X013781Y038384D02*
X013474Y038845D01*
D17*
X019909Y010245D03*
X020451Y010245D03*
X018201Y002052D03*
X017659Y002052D03*
D18*
X017930Y002205D03*
X020180Y010093D03*
X044249Y002774D03*
D19*
X047276Y005425D02*
X047946Y005425D01*
X049993Y005425D02*
X050387Y005425D01*
X050387Y005819D01*
X050387Y010228D02*
X050387Y010622D01*
X049993Y010622D01*
X047946Y010622D02*
X047276Y010622D01*
X040623Y010622D02*
X040229Y010622D01*
X040229Y010228D01*
X038637Y010047D02*
X036087Y010047D01*
X036087Y005000D01*
X035723Y005000D01*
X036087Y005000D02*
X038637Y005000D01*
X040229Y005425D02*
X040623Y005425D01*
X040229Y005425D02*
X040229Y005819D01*
X036087Y010047D02*
X035723Y010047D01*
X032174Y001957D02*
X027686Y001957D01*
X027686Y001091D01*
X032174Y001091D01*
X032174Y001957D01*
X010613Y019530D02*
X010613Y024018D01*
X009747Y024018D01*
X009747Y019530D01*
X010613Y019530D01*
X004470Y023264D02*
X004470Y025624D01*
X001890Y025624D01*
X001890Y023264D01*
X004629Y030223D02*
X004629Y031325D01*
X005731Y031325D01*
X005731Y030223D01*
X004629Y030223D01*
X009629Y030223D02*
X009629Y031325D01*
X010731Y031325D01*
X010731Y030223D01*
X009629Y030223D01*
X015373Y030223D02*
X015373Y031325D01*
X016987Y031325D01*
X016987Y030223D01*
X015373Y030223D01*
X014652Y035337D02*
X013353Y035337D01*
X013353Y038211D01*
X014652Y038211D01*
X014652Y035337D01*
X014633Y037856D02*
X014574Y037856D01*
X014574Y038053D01*
X014633Y038053D01*
X010652Y038211D02*
X010652Y035337D01*
X009353Y035337D01*
X009353Y038211D01*
X010652Y038211D01*
X010633Y038053D02*
X010574Y038053D01*
X010574Y037856D01*
X010633Y037856D01*
D20*
X003180Y025814D03*
D21*
X044401Y003044D03*
X044401Y002503D03*
D22*
X016623Y023933D03*
X016623Y025114D03*
X016623Y027933D03*
X016623Y029114D03*
X020737Y033183D03*
X020737Y034364D03*
D23*
X019710Y032083D02*
X019463Y032083D01*
X019401Y032022D01*
X019401Y031898D01*
X019463Y031836D01*
X019524Y031836D01*
X019586Y031898D01*
X019586Y032083D01*
X019710Y032083D02*
X019771Y032022D01*
X019771Y031898D01*
X019710Y031836D01*
X019771Y031715D02*
X019771Y031468D01*
X019524Y031715D01*
X019463Y031715D01*
X019401Y031653D01*
X019401Y031530D01*
X019463Y031468D01*
X019463Y031347D02*
X019401Y031285D01*
X019401Y031161D01*
X019463Y031100D01*
X019710Y031100D01*
X019771Y031161D01*
X019771Y031285D01*
X019710Y031347D01*
X017624Y031376D02*
X017624Y031129D01*
X017377Y031376D01*
X017315Y031376D01*
X017254Y031314D01*
X017254Y031191D01*
X017315Y031129D01*
X017315Y031008D02*
X017254Y030946D01*
X017254Y030822D01*
X017315Y030761D01*
X017562Y030761D01*
X017624Y030822D01*
X017624Y030946D01*
X017562Y031008D01*
X017624Y030639D02*
X017624Y030515D01*
X017624Y030577D02*
X017254Y030577D01*
X017254Y030515D02*
X017254Y030639D01*
X021588Y027795D02*
X021650Y027856D01*
X021712Y027856D01*
X021774Y027795D01*
X021774Y027671D01*
X021712Y027609D01*
X021650Y027609D01*
X021588Y027671D01*
X021588Y027795D01*
X021774Y027795D02*
X021835Y027856D01*
X021897Y027856D01*
X021959Y027795D01*
X021959Y027671D01*
X021897Y027609D01*
X021835Y027609D01*
X021774Y027671D01*
X021897Y027488D02*
X021959Y027426D01*
X021959Y027303D01*
X021897Y027241D01*
X021650Y027241D01*
X021588Y027303D01*
X021588Y027426D01*
X021650Y027488D01*
X010603Y031659D02*
X010541Y031598D01*
X010418Y031598D01*
X010356Y031659D01*
X010356Y031721D01*
X010418Y031783D01*
X010541Y031783D01*
X010603Y031721D01*
X010603Y031659D01*
X010541Y031783D02*
X010603Y031845D01*
X010603Y031906D01*
X010541Y031968D01*
X010418Y031968D01*
X010356Y031906D01*
X010356Y031845D01*
X010418Y031783D01*
X010235Y031906D02*
X010173Y031968D01*
X010050Y031968D01*
X009988Y031906D01*
X009988Y031659D01*
X010050Y031598D01*
X010173Y031598D01*
X010235Y031659D01*
X009866Y031598D02*
X009742Y031598D01*
X009804Y031598D02*
X009804Y031968D01*
X009742Y031968D02*
X009866Y031968D01*
X005721Y031906D02*
X005660Y031968D01*
X005536Y031968D01*
X005474Y031906D01*
X005721Y031906D02*
X005721Y031845D01*
X005474Y031598D01*
X005721Y031598D01*
X005353Y031598D02*
X005106Y031598D01*
X005230Y031598D02*
X005230Y031968D01*
X005106Y031845D01*
X004985Y031906D02*
X004923Y031968D01*
X004800Y031968D01*
X004738Y031906D01*
X004738Y031659D01*
X004800Y031598D01*
X004923Y031598D01*
X004985Y031659D01*
X004616Y031598D02*
X004492Y031598D01*
X004554Y031598D02*
X004554Y031968D01*
X004492Y031968D02*
X004616Y031968D01*
X015318Y004553D02*
X015256Y004491D01*
X015256Y004244D01*
X015318Y004182D01*
X015441Y004182D01*
X015503Y004244D01*
X015624Y004182D02*
X015871Y004182D01*
X015748Y004182D02*
X015748Y004553D01*
X015624Y004429D01*
X015503Y004491D02*
X015441Y004553D01*
X015318Y004553D01*
D24*
X016830Y031167D03*
X009786Y031167D03*
X004786Y031167D03*
D25*
X022983Y024226D03*
X030983Y024226D03*
X038983Y024226D03*
X046983Y024226D03*
M02*
